<svg width="227" height="251" viewBox="0 0 227 251" fill="none" xmlns="http://www.w3.org/2000/svg">
<g opacity="0.91">
<g opacity="0.91">
<path opacity="0.91" d="M172.003 91.9852C171.86 92.2619 171.837 92.5978 171.973 92.9042C172.208 93.44 172.836 93.6822 173.371 93.4453C175.825 92.3587 177.23 91.7717 177.237 91.7708C177.778 91.545 178.029 90.9218 177.802 90.3826C177.576 89.8422 176.955 89.5887 176.415 89.8152C176.415 89.8152 174.997 90.4092 172.513 91.5081C172.286 91.6075 172.11 91.78 172.003 91.9852Z" fill="#4770FF"/>
<path opacity="0.91" d="M14.8513 153.091C16.1721 150.571 17.59 148.122 19.0719 145.812C19.3879 145.319 20.0439 145.176 20.5369 145.491C21.028 145.806 21.1496 146.448 20.8565 146.955C19.4088 149.214 18.0201 151.609 16.7287 154.072C16.4579 154.592 15.8185 154.793 15.2982 154.52C14.7804 154.249 14.5812 153.61 14.8494 153.092C14.8506 153.093 14.8513 153.091 14.8513 153.091ZM12.648 160.129C13.1855 160.357 13.4361 160.981 13.2059 161.519C12.1306 164.042 11.1392 166.631 10.2627 169.215C10.0739 169.766 9.47257 170.064 8.91931 169.878C8.36551 169.69 8.06832 169.087 8.25656 168.533C9.15062 165.899 10.1602 163.258 11.2585 160.689C11.2677 160.661 11.2812 160.638 11.2934 160.613C11.5463 160.128 12.1349 159.91 12.648 160.129ZM23.9501 138.947C25.7233 136.7 27.5951 134.568 29.519 132.613C29.9287 132.196 30.6002 132.19 31.0181 132.601C31.4362 133.01 31.4405 133.678 31.0319 134.1C29.1621 136.001 27.339 138.073 25.614 140.259C25.2518 140.72 24.5852 140.798 24.1243 140.436C23.7199 140.116 23.6128 139.558 23.8428 139.115C23.8742 139.057 23.9088 139 23.9501 138.947ZM35.7861 126.957C37.9905 125.193 40.3229 123.565 42.7156 122.12C43.2174 121.817 43.8669 121.976 44.1697 122.477C44.4707 122.978 44.315 123.625 43.8117 123.932C41.4983 125.331 39.2424 126.906 37.111 128.611C36.6536 128.977 35.9866 128.903 35.62 128.445C35.3497 128.106 35.3211 127.656 35.5082 127.294C35.5734 127.168 35.6656 127.053 35.7861 126.957ZM50.2277 118.243C52.7828 117.132 55.4597 116.177 58.1861 115.402C58.7504 115.241 59.336 115.569 59.4966 116.132C59.6602 116.697 59.3296 117.282 58.7679 117.441C56.13 118.19 53.5417 119.114 51.0745 120.187C50.5375 120.421 49.9133 120.175 49.6797 119.636C49.5451 119.331 49.5695 118.997 49.7115 118.723C49.8171 118.515 49.995 118.342 50.2277 118.243ZM66.4409 113.614C68.3322 113.325 70.2751 113.109 72.2124 112.969C73.1015 112.905 73.9742 112.858 74.834 112.824C75.4182 112.801 75.9097 113.257 75.9328 113.841C75.9554 114.423 75.4978 114.918 74.9169 114.942C74.0801 114.975 73.2324 115.022 72.3678 115.084C70.4833 115.217 68.5969 115.429 66.7611 115.71C66.1824 115.796 65.6421 115.4 65.5547 114.822C65.519 114.591 65.5603 114.366 65.6613 114.172C65.8098 113.883 66.0932 113.667 66.4409 113.614ZM83.2758 112.986C86.1855 113.226 89.003 113.665 91.6444 114.288C92.217 114.426 92.5691 114.996 92.4319 115.564C92.3044 116.141 91.7291 116.489 91.159 116.352C88.618 115.752 85.9065 115.329 83.1006 115.097C82.5191 115.049 82.0852 114.536 82.1336 113.953C82.1455 113.809 82.1863 113.674 82.2494 113.552C82.4399 113.187 82.8369 112.95 83.2758 112.986ZM99.7111 116.979C100.532 117.342 101.328 117.726 102.101 118.129C103.857 119.043 105.54 120.086 107.105 121.228C107.578 121.572 107.681 122.231 107.335 122.707C106.991 123.18 106.329 123.285 105.856 122.94C104.374 121.86 102.783 120.874 101.122 120.009C100.39 119.626 99.6351 119.262 98.8533 118.918C98.3188 118.681 98.0761 118.055 98.3132 117.52C98.3221 117.498 98.3334 117.479 98.3435 117.458C98.6 116.966 99.1967 116.751 99.7111 116.979ZM89.083 145.884C90.5019 143.75 92.2968 141.528 94.4132 139.277C94.8151 138.85 95.4868 138.829 95.9135 139.231C96.3415 139.634 96.356 140.302 95.9598 140.73C93.9224 142.895 92.2018 145.025 90.8472 147.06C90.5226 147.548 89.8633 147.679 89.376 147.355C88.922 147.052 88.7778 146.458 89.0248 145.986C89.041 145.949 89.0614 145.916 89.083 145.884ZM86.6711 152.921C87.2365 153.075 87.5693 153.658 87.4131 154.222C86.6813 156.907 86.6885 159.464 87.4343 161.821C87.6149 162.38 87.3004 162.973 86.746 163.151C86.1879 163.328 85.5909 163.019 85.416 162.462C84.5419 159.708 84.5257 156.749 85.3693 153.664C85.3908 153.589 85.4177 153.519 85.4521 153.453C85.6784 153.02 86.1827 152.788 86.6711 152.921ZM100.506 133.451C102.485 131.727 104.677 129.945 107.025 128.158C107.489 127.803 108.155 127.894 108.509 128.358C108.863 128.825 108.776 129.488 108.309 129.845C105.999 131.604 103.843 133.354 101.899 135.048C101.459 135.433 100.788 135.387 100.405 134.946C100.11 134.608 100.069 134.137 100.265 133.76C100.322 133.646 100.403 133.542 100.506 133.451ZM90.1633 168.292C90.5687 167.87 91.2392 167.857 91.6607 168.263C92.3894 168.962 93.2087 169.656 94.1056 170.323C95.3979 171.289 96.6893 172.109 97.9508 172.766L98.169 172.88C98.6911 173.144 98.9006 173.782 98.636 174.305C98.6345 174.307 98.6324 174.311 98.6303 174.315C98.363 174.828 97.7299 175.032 97.2096 174.771L96.9708 174.648C95.6129 173.941 94.2214 173.056 92.838 172.025C91.8726 171.302 90.9816 170.553 90.1903 169.793C89.8448 169.459 89.775 168.945 89.9857 168.539C90.0316 168.45 90.0906 168.367 90.1633 168.292ZM113.814 123.251C116.009 121.74 118.358 120.19 120.799 118.643C121.292 118.329 121.949 118.476 122.262 118.97C122.577 119.463 122.431 120.12 121.936 120.433C119.519 121.967 117.19 123.502 115.016 124.996C114.535 125.33 113.875 125.206 113.545 124.724C113.315 124.389 113.301 123.97 113.478 123.633C113.552 123.486 113.667 123.353 113.814 123.251ZM111.893 126.905C112.337 126.523 113.007 126.574 113.386 127.016C115.235 129.167 116.846 131.547 118.174 134.088C118.446 134.608 118.245 135.246 117.726 135.519C117.208 135.79 116.568 135.589 116.296 135.071C115.04 132.671 113.522 130.427 111.779 128.399C111.489 128.061 111.45 127.592 111.643 127.219C111.705 127.103 111.787 126.996 111.893 126.905ZM127.926 114.275C130.335 112.842 132.757 111.451 135.165 110.104C135.675 109.819 136.318 110 136.606 110.512C136.894 111.022 136.71 111.669 136.2 111.955C133.809 113.293 131.402 114.676 129.008 116.097C128.504 116.395 127.856 116.23 127.553 115.727C127.361 115.401 127.362 115.01 127.525 114.696C127.613 114.527 127.75 114.38 127.926 114.275ZM119.972 141.293C120.539 141.141 121.119 141.476 121.273 142.041C122.014 144.793 122.463 147.628 122.607 150.469C122.632 151.051 122.188 151.551 121.601 151.579C121.016 151.608 120.519 151.16 120.489 150.573C120.354 147.886 119.928 145.2 119.226 142.592C119.153 142.325 119.191 142.054 119.308 141.826C119.441 141.575 119.676 141.375 119.972 141.293ZM105.652 174.822C108.233 174.789 110.613 173.949 112.725 172.327C113.187 171.97 113.855 172.059 114.21 172.523C114.566 172.987 114.485 173.651 114.016 174.008C111.532 175.915 108.727 176.903 105.678 176.942C105.091 176.949 104.612 176.48 104.603 175.894C104.603 175.713 104.645 175.542 104.722 175.392C104.899 175.057 105.248 174.827 105.652 174.822ZM142.494 106.104C145.026 104.756 147.508 103.47 149.903 102.251C150.426 101.986 151.064 102.194 151.329 102.717C151.594 103.241 151.385 103.876 150.865 104.142C148.479 105.351 146.009 106.632 143.491 107.973C142.973 108.248 142.331 108.051 142.059 107.536C141.889 107.217 141.899 106.848 142.054 106.548C142.149 106.366 142.299 106.208 142.494 106.104ZM121.235 157.771C121.812 157.876 122.196 158.424 122.091 159.001C121.559 161.994 120.666 164.746 119.444 167.182C119.123 167.693 118.544 167.916 118.022 167.654C117.499 167.391 117.287 166.753 117.55 166.231C118.68 163.978 119.507 161.42 120.005 158.628C120.025 158.52 120.061 158.418 120.109 158.325C120.316 157.924 120.767 157.688 121.235 157.771ZM157.382 98.5383C160.113 97.2107 162.649 96.0065 164.922 94.9515C165.453 94.7053 166.085 94.935 166.33 95.465C166.576 95.9937 166.346 96.6239 165.817 96.8746C163.556 97.9265 161.028 99.1221 158.308 100.445C157.782 100.702 157.146 100.482 156.892 99.9543C156.74 99.6407 156.756 99.2897 156.906 99.0019C157.007 98.8059 157.168 98.6415 157.382 98.5383Z" fill="#4770FF"/>
<path opacity="0.91" d="M5.90937 176.484C5.87145 176.556 5.84349 176.634 5.82239 176.714C5.16326 179.323 4.89598 180.859 4.8841 180.923C4.7848 181.499 5.17198 182.048 5.74864 182.147C6.3246 182.248 6.86842 181.858 6.97269 181.284C6.9773 181.27 7.23958 179.755 7.87779 177.234C8.0221 176.665 7.67672 176.089 7.11016 175.946C6.62368 175.824 6.13143 176.058 5.90937 176.484Z" fill="#4770FF"/>
</g>
<g opacity="0.91">
<path opacity="0.91" d="M166.636 64.8373L180.251 86.5639L180.272 86.599L204.07 80.2521L182.75 92.7816L182.756 92.8165L187.031 117.493L226.765 71.1573L166.636 64.8373Z" fill="#4770FF"/>
<path opacity="0.91" d="M180.251 86.564L182.756 92.8166L182.75 92.7817L222.02 73.0587L180.272 86.5991L180.251 86.564Z" fill="white"/>
</g>
</g>
</svg>
