<svg width="1206" height="1228" viewBox="0 0 1206 1228" fill="none" xmlns="http://www.w3.org/2000/svg">
<path d="M347.368 252.58C391.251 172.776 473.683 167.396 538.207 231.669C570.617 263.952 612.561 274.696 712.898 255.016C813.235 235.336 844.816 237.442 917.559 337.459C967.511 406.14 916.523 484.532 910.361 554.805C904.199 625.078 1097.08 603.464 1119.45 700.422C1145.21 811.997 1036.9 870.733 940.719 932.868C850.725 991.004 782.341 1003.78 675.217 1001.97C558.374 999.996 459.81 956.689 363.066 891.136C240.15 807.849 125.397 740.042 171.486 598.9C205.873 493.593 389.881 545.39 403.315 435.429C412.793 357.85 309.709 321.064 347.368 252.58Z" fill="#ECF7FF"/>
<path d="M613.5 921C534.799 921 471 912.27 471 901.5C471 890.73 534.799 882 613.5 882C692.201 882 756 890.73 756 901.5C756 912.27 692.201 921 613.5 921Z" fill="#E5E5E5"/>
<path d="M487.926 440.673C488.043 439.453 487.973 438.323 487.764 437.41C483.859 420.654 457.555 357.35 454.948 339.098C449.814 337.92 446.733 340.075 442.973 340.114C443.701 365.305 460.919 448.725 472.625 451.027C483.349 453.14 487.412 446.047 487.926 440.673Z" fill="#FFBE8E"/>
<path d="M566.808 396.628C565.469 390.832 548.919 365.518 543.396 363.46C542.136 362.99 540.799 363.11 539.742 363.788C532.921 368.152 521.055 379.638 508.496 391.804C499.995 400.031 491.306 408.444 483.604 415.256C482.361 411.971 481.047 408.532 479.705 405.025C471.695 384.091 461.726 358.036 460.847 347.823L440.005 351.297C442.707 376.751 455.196 435.624 466.667 451.596C466.806 451.792 467.955 452.891 469.349 454.195C472.597 457.231 477.395 457.935 481.368 455.936C502.944 445.081 569.93 410.174 566.808 396.628Z" fill="#031643"/>
<path d="M607.463 900.552L596.021 894.188C596.021 894.188 593.567 897.867 591.562 900.237C587.701 904.813 569.194 908.124 569.194 914.615C569.194 917.895 576.087 920.837 581.709 921.059C587.331 921.281 591.949 920.281 595.266 919.195C598.582 918.106 606.157 915.026 607.357 913.003C609.448 909.496 607.797 905.426 607.797 905.426C608.393 901.807 607.463 900.552 607.463 900.552Z" fill="#002847"/>
<path d="M592.716 893.822C592.716 893.822 594.468 896.585 591.561 900.24C591.561 900.24 591.541 902.663 595.875 905.05C598.327 906.396 607.799 905.429 607.799 905.429C608.397 901.81 608.082 896.574 608.082 896.574L592.716 893.822Z" fill="#FFBE8E"/>
<path d="M563.704 520.102C562.6 527.986 556.428 636.06 564.53 734.359C571.503 818.981 592.857 896.361 592.857 896.361C593.01 896.968 604.138 903.019 609.738 896.851C609.738 896.851 600.902 813.495 612.128 734.847C621.818 666.957 635.055 602.567 640.428 598.335V526.379C612.858 528.184 572.844 524.108 563.704 520.102Z" fill="#031643"/>
<path d="M694.093 898.615L682.186 893.168C682.186 893.168 680.032 897.027 678.216 899.549C674.726 904.413 656.534 909.164 657.044 915.633C657.299 918.9 664.405 921.297 670.025 921.079C675.647 920.861 680.535 920.16 683.396 918.155C686.964 915.657 693.923 913.148 694.963 911.04C696.775 907.374 694.812 903.447 694.812 903.447C695.122 899.793 694.093 898.615 694.093 898.615Z" fill="#002847"/>
<path d="M679.746 892.676C679.746 892.676 680.828 895.675 678.218 899.551C678.218 899.551 677.437 902.7 681.94 904.738C684.486 905.89 694.811 903.448 694.811 903.448C695.124 899.791 694.943 894.325 694.943 894.325L679.746 892.676Z" fill="#FFBE8E"/>
<path d="M694.772 517.318C667.43 521.28 594.209 540.24 584.778 536.964C584.301 544.932 622.585 639.537 638.403 737.123C651.936 820.615 679.207 895.583 679.207 895.583C679.407 896.176 690.977 901.339 696.073 894.747C696.073 894.747 676.261 811.93 685.761 733.055C692.692 675.51 698.723 633.074 694.772 517.318Z" fill="#00265A"/>
<path d="M559.557 322.392C559.801 323.949 565.704 339.971 563.193 349.314C565.819 357.37 588.703 354.5 593.224 339.712C590.088 336.06 585.203 315.165 585.341 307.417C583.62 309.053 565.295 322.527 559.557 322.392Z" fill="#FFBE8E"/>
<path d="M575.926 279.568C566.432 275.135 556.122 273.752 550.412 282.129C548.361 285.124 538.279 315.433 552.42 326.079C558.4 330.578 575.735 324.081 579.295 316.467C579.295 316.467 584.143 306.082 584.189 305.979C588.903 295.882 586.122 284.332 575.926 279.568Z" fill="#FFBE8E"/>
<path d="M688.73 576.237L672.685 522.934L676.487 579.171C649.852 593.506 620.595 596.2 597.177 593.117H597.161C593.136 587.985 590.066 579.096 590.066 579.096C587.36 584.065 585.024 588.553 583.826 590.604C577.122 588.944 571.212 586.802 566.377 584.379C561.663 582.029 557.982 579.41 555.572 576.701C555.632 575.804 555.678 574.892 555.722 573.993C560.031 493.963 537.855 413.052 536.597 404.117C534.445 388.495 527.409 370.597 540.518 360.571C543.899 357.983 563.191 349.303 563.191 349.303C563.191 349.303 568.681 354.705 574.233 353.597C582.285 351.965 593.224 339.709 593.224 339.709C593.224 339.709 611.361 341.37 617.212 342.913C669.616 356.741 701.489 423.002 701.489 574.292C698.905 574.815 691.99 575.415 688.73 576.237Z" fill="#00265A"/>
<path d="M593.224 339.709C593.224 339.709 582.283 351.965 574.227 353.59C568.695 354.707 563.191 349.311 563.191 349.311C563.191 349.311 545.149 357.418 540.929 360.281C544.216 376.547 572.2 429.316 572.2 429.316C572.2 429.316 595.882 356.829 617.216 342.92C617.216 342.92 611.818 341.062 605.431 340.591C602.533 340.378 593.224 339.709 593.224 339.709Z" fill="white"/>
<path d="M604.376 273.123C593.255 247.398 552.36 247.906 542.35 267.767C540.136 272.149 539.403 284.924 585.44 295.135C587.197 304.688 581.819 321.665 581.819 321.665C599.343 316.313 612.878 292.791 604.376 273.123Z" fill="#002664"/>
<path d="M587.61 302.545C586.684 301.94 584.75 301.148 582.874 301.153C581.546 304.862 580.117 311.269 579.409 314.433C582.085 315.297 587.148 313.617 588.648 311.324C590.233 308.894 590.037 304.134 587.61 302.545Z" fill="#FFBE8E"/>
<path d="M435.969 335.615C436.001 335.683 436.054 335.743 436.076 335.787C440.278 341.875 442.299 343.619 444 345.804C448.396 345.444 454.999 339.267 454.948 339.096C454.541 338.608 454.134 336.679 453.697 336.079C451.626 333.245 449.827 330.204 448.218 328.107C445.966 325.092 441.604 324.417 441.604 324.417C441.604 324.417 438.18 329.039 438.622 331.251C438.622 331.251 436.004 330.932 436.254 333.401C436.252 333.401 434.768 333.92 435.969 335.615Z" fill="#FFBE8E"/>
<path d="M567.133 368.029L561.709 386.413C561.5 387.116 561.439 387.855 561.525 388.583L563.948 409.115L570.346 425.781H574.422L577.665 403.877L578.134 387.255C578.156 386.538 578.03 385.826 577.775 385.155L571.456 368.711L567.133 368.029Z" fill="#4770FF"/>
<path d="M563.694 365.696L564.279 367.356C564.827 368.915 566.302 369.96 567.953 369.96H570.577C571.955 369.96 573.23 369.232 573.932 368.044L576.346 363.961C577.144 362.609 577.052 360.91 576.115 359.65L571.678 353.7L570.348 353.293L564.169 362.176C563.453 363.205 563.277 364.513 563.694 365.696Z" fill="#4770FF"/>
<path d="M571.454 353.651L577.382 366.749C577.382 366.749 598.426 356.461 602.54 338.315L592.003 337.645C592.005 337.645 588.347 346.259 571.454 353.651Z" fill="#E0E0E0"/>
<path d="M553.348 352.376C553.348 352.376 555.557 362.104 560.935 366.343L571.454 353.652C571.454 353.652 562.785 351.51 563.803 344.648C563.8 344.648 556.34 348.386 553.348 352.376Z" fill="#E0E0E0"/>
<path d="M601.981 339.032C601.981 339.032 579.086 379.935 572.202 422.21C572.202 422.21 572.054 430.939 572.8 436.179C572.8 436.179 587.514 395.65 610.708 377.943L605.719 367.389L617.133 362.48C617.133 362.48 618.936 351.506 624.923 343.276C624.925 343.271 611.832 339.032 601.981 339.032Z" fill="#031643"/>
<path d="M572.202 422.21C572.202 422.21 550.852 383.121 551.103 353.72C551.103 353.72 541.345 357.537 537.915 362.941C537.915 362.941 539.131 377.941 543.37 383.178L550.353 385.922L546.861 394.776C546.861 394.776 559.082 423.584 572.8 436.179C572.8 436.176 571.896 424.022 572.202 422.21Z" fill="#031643"/>
<path d="M589.521 580.329L590.999 580.085C582.127 526.361 573.631 437.001 573.545 436.106L572.054 436.247C572.14 437.144 580.64 526.555 589.521 580.329Z" fill="#031643"/>
<path d="M667.197 500.817C666.777 502.215 671.832 505.084 673.162 504.99C676.342 503.728 675.759 501.758 678.877 501.034C676.109 501.245 673.182 500.821 670.524 500.106C669.086 499.603 667.677 498.607 667.197 500.817Z" fill="#FFBE8E"/>
<path d="M681.23 500.425C678.119 501.155 674.856 502.22 671.672 503.482C667.899 504.939 659.759 509.196 659.192 509.497C657.578 510.46 653.275 512.327 652.235 513.438C651.571 514.148 650.465 516.839 650.586 518.033C650.74 519.614 652.345 519.869 652.345 519.869C652.165 521.949 656.971 521.118 656.826 521.621C656.226 523.684 658.605 525.036 664.909 521.542C665.291 521.333 689.484 512.688 694.772 510.5C693.985 506.943 681.408 500.401 681.23 500.425Z" fill="#FFBE8E"/>
<path d="M741 405.198C734.144 397.995 727.113 392.855 727.113 392.855C726.117 391.9 725.154 391.058 724.237 390.357C707.456 377.143 638.278 336.139 625.296 349.443C620.954 353.902 608.025 382.8 609.34 388.829C609.641 390.203 610.499 391.311 611.697 391.861C619.399 395.399 636.224 399.345 654.047 403.521C671.956 407.727 690.475 412.067 702.223 416.454C703.699 417.006 705.123 417.476 706.524 417.881C704.215 424.486 701.561 432.658 698.784 441.216C691.544 463.528 682.529 491.303 676.529 500.201L695.788 511.074C708.54 491.331 732.056 445.71 738.427 420.93V420.928C740.815 412.949 741 405.198 741 405.198Z" fill="#00265A"/>
<path d="M431.63 359.742C431.246 360.822 432.11 362.77 433.761 363.036C435.421 363.302 437.083 362.638 437.468 361.554L464.271 297.615L446.742 294.833L431.63 359.742Z" fill="#004143"/>
<path d="M485.405 250.261L461.258 245.949L449.13 308.947L473.318 313.268C488.446 315.97 503.414 304.046 506.746 286.639C510.077 269.245 500.523 252.961 485.405 250.261Z" fill="#25388E"/>
<path d="M462.046 246.052C461.773 246 461.498 246.004 461.225 245.975L461.232 245.945L377.804 201.207L354.697 321.853L449.128 308.947L449.135 308.918C449.207 308.934 449.275 308.967 449.35 308.982C458.352 310.708 468.492 298.019 471.997 280.641C475.5 263.262 471.047 247.776 462.046 246.052Z" fill="#4770FF"/>
<path d="M374.631 200.268C358.189 197.133 339.306 221.825 332.49 255.417C325.634 288.969 333.424 318.707 349.86 321.858C359.499 323.679 369.976 315.957 378.362 302.481C382.326 296.137 385.829 288.51 388.56 280.018C389.918 275.777 391.088 271.329 392.025 266.683C392.955 262.066 393.623 257.547 394.012 253.135C394.971 242.809 394.483 233.205 392.779 225.081C389.896 211.429 383.54 201.944 374.631 200.268Z" fill="#707FB0"/>
<path d="M380.884 213.584C367.766 211.084 352.707 230.771 347.252 257.558C341.791 284.33 348.004 308.054 361.12 310.554C366.81 311.627 372.879 308.523 378.364 302.481C382.329 296.137 385.831 288.51 388.562 280.018C389.921 275.777 391.091 271.329 392.027 266.683C392.957 262.066 393.626 257.547 394.015 253.135C394.973 242.809 394.485 233.205 392.781 225.081C390.064 218.742 385.998 214.556 380.884 213.584Z" fill="#A4B8E1"/>
<path d="M378.147 248.964L394.409 247.246C394.409 247.246 394.868 265.177 385.396 288.659L371.854 280.001L378.147 248.964Z" fill="#707FB0"/>
<path d="M378.67 249.155C374.503 248.361 369.721 254.612 367.991 263.121C366.256 271.621 368.228 279.156 372.395 279.95C374.202 280.291 376.128 279.306 377.872 277.387C379.129 275.372 380.242 272.949 381.11 270.252C381.541 268.906 381.913 267.492 382.21 266.017C382.507 264.55 382.718 263.115 382.843 261.714C383.146 258.433 382.99 255.386 382.449 252.805C381.585 250.791 380.297 249.46 378.67 249.155Z" fill="#5E6EA5"/>
<path d="M449.134 308.916L449.128 308.945L449.282 308.962C449.233 308.945 449.185 308.927 449.134 308.916Z" fill="#004143"/>
<path d="M469.097 246.824C468.826 246.771 468.551 246.774 468.279 246.747L468.285 246.714L461.232 245.942L461.225 245.973C461.498 246 461.773 245.997 462.043 246.05C471.047 247.774 475.499 263.262 471.995 280.638C468.679 297.065 459.438 309.301 450.834 309.132L456.124 309.721L456.179 309.714L456.184 309.688C456.258 309.703 456.326 309.736 456.401 309.752C465.403 311.475 475.541 298.789 479.048 281.41C482.553 264.034 478.1 248.548 469.097 246.824Z" fill="#004143"/>
<path d="M450.889 325.774C449.634 326.027 449.576 331.649 450.214 332.751C452.54 334.934 452.697 336.932 454.946 339.096C453.873 336.618 453.435 330.932 452.853 328.322C452.631 326.869 452.795 325.213 450.889 325.774Z" fill="#FFBE8E"/>
<path d="M448.237 326.708C447.393 325.323 443.112 322.368 441.577 320.992C441.443 320.882 440.874 320.424 440.034 319.758C439.541 319.369 438.871 319.301 438.312 319.587C436.087 320.73 431.043 324.457 434.251 333.784C438.616 336.679 440.812 335.835 440.744 333.924C440.722 333.375 445.869 335.395 446.269 333.234C446.269 333.234 448.141 333.366 448.769 331.794C449.24 330.609 448.778 327.594 448.237 326.708Z" fill="#FFBE8E"/>
</svg>
