<svg width="1316" height="1305" viewBox="0 0 1316 1305" fill="none" xmlns="http://www.w3.org/2000/svg">
<path d="M378.548 268.419C426.371 183.611 516.201 177.893 586.518 246.197C621.836 280.504 667.546 291.922 776.889 271.008C886.232 250.094 920.648 252.332 999.92 358.621C1054.36 431.609 998.791 514.916 992.076 589.596C985.361 664.276 1195.55 641.307 1219.94 744.344C1248 862.917 1129.98 925.336 1025.16 991.367C927.087 1053.15 852.565 1066.72 735.826 1064.8C608.494 1062.7 501.083 1016.68 395.656 947.018C261.707 858.508 136.653 786.449 186.879 636.456C224.353 524.545 424.878 579.591 439.518 462.734C449.846 380.291 337.509 341.198 378.548 268.419Z" fill="#ECF7FF"/>
<path d="M703.441 894.801C525.591 894.801 381.416 879.576 381.416 860.794C381.416 842.013 525.591 826.788 703.441 826.788C881.29 826.788 1025.46 842.013 1025.46 860.794C1025.46 879.576 881.29 894.801 703.441 894.801Z" fill="#E5E5E5"/>
<path d="M649.507 631.065L709.058 860.795H714.543L654.991 631.065H649.507Z" fill="#25388E"/>
<path d="M720.193 631.065L779.749 860.795H785.237L725.681 631.065H720.193Z" fill="#25388E"/>
<path d="M660.84 661.902L661.546 666.512H731.558L730.852 661.902H660.84Z" fill="#25388E"/>
<path d="M670.792 700.443L671.498 705.054H741.51L740.804 700.443H670.792Z" fill="#25388E"/>
<path d="M680.741 738.99L681.447 743.601H751.463L750.753 738.99H680.741Z" fill="#25388E"/>
<path d="M690.693 777.532L691.399 782.142H761.412L760.706 777.532H690.693Z" fill="#25388E"/>
<path d="M700.642 816.077L701.348 820.687H771.364L770.654 816.077H700.642Z" fill="#25388E"/>
<path d="M535.073 860.579H540.557L600.225 631.065H594.741L535.073 860.579Z" fill="#3E4F9B"/>
<path d="M605.764 860.579H611.248L670.916 631.065H665.432L605.764 860.579Z" fill="#3E4F9B"/>
<path d="M548.229 823.308H618.245L618.951 818.697H548.935L548.229 823.308Z" fill="#3E4F9B"/>
<path d="M558.182 784.763H628.198L628.904 780.152H558.887L558.182 784.763Z" fill="#3E4F9B"/>
<path d="M568.13 746.221H638.146L638.852 741.607H568.84L568.13 746.221Z" fill="#3E4F9B"/>
<path d="M578.082 707.676H648.094L648.804 703.066H578.788L578.082 707.676Z" fill="#3E4F9B"/>
<path d="M588.035 669.135H658.047L658.753 664.521H588.745L588.035 669.135Z" fill="#3E4F9B"/>
<path d="M741.514 619.56H676.517V631.065H741.514V619.56Z" fill="#25388E"/>
<path d="M676.517 619.56H573.537V631.065H676.517V619.56Z" fill="#3E4F9B"/>
<path d="M694.515 551.333C671.051 543.246 525.968 547.251 465.406 559.265C439.638 564.374 441.772 595.976 464.954 604.67C526.899 627.899 606.058 628.942 660.577 624.408C708.463 620.435 719.841 560.069 694.515 551.333Z" fill="#575F5F"/>
<path d="M604.803 771.996L593.121 782.158C593.121 782.158 596.749 786.645 598.116 789.431C600.765 794.805 587.334 816.374 593.318 820.094C596.138 821.847 602.659 815.991 606.042 810.824C609.175 806.036 615.117 797.051 616.99 794.089C619.368 790.308 624.682 784.622 624.16 782.34C622.782 776.416 615.021 778.014 611.372 775.741C608.207 773.775 604.803 771.996 604.803 771.996Z" fill="#031643"/>
<path d="M592.334 782.22C592.334 782.22 595.93 785.301 598.122 789.436C598.122 789.436 598.638 791.619 601.797 790.193C604.388 789.026 611.367 775.741 611.367 775.741C608.239 773.723 601.951 769.884 601.951 769.884L592.334 782.22Z" fill="#FFB5A5"/>
<path d="M723.873 527.898C699.196 524.765 545.725 562.441 489.062 586.521C464.96 596.767 473.806 627.237 498.345 631.019C563.891 641.119 652.125 640.315 704.468 624.779C750.45 611.136 750.513 531.281 723.873 527.898Z" fill="#555858"/>
<path d="M480.21 635.323C544.342 720.521 592.089 783.932 592.089 783.932C598.302 783.797 605.68 778.869 611.016 773.838C611.016 773.838 576.519 698.947 534.607 615.435C506.962 560.37 454.049 600.568 480.21 635.323Z" fill="#555858"/>
<path d="M429.883 769.102L414.393 766.897C414.393 766.897 413.196 772.495 411.887 775.311C409.371 780.743 383.795 784.561 384.71 791.418C385.146 794.655 393.934 795.765 400.168 794.972C405.945 794.235 416.824 792.907 420.35 792.399C424.856 791.75 432.734 792.067 434.192 790.205C437.963 785.38 431.723 780.603 431.165 776.411C430.675 772.785 429.883 769.102 429.883 769.102Z" fill="#031643"/>
<path d="M413.839 766.343C413.839 766.343 413.728 771.011 411.887 775.306C411.887 775.306 410.504 777.091 413.659 778.543C416.239 779.731 431.16 776.406 431.16 776.406C430.739 772.775 429.718 765.606 429.718 765.606L413.839 766.343Z" fill="#FFB5A5"/>
<path d="M613.739 254.204C623.41 254.152 627.171 243.611 635.294 240.214C647.997 234.896 665.86 235.628 675.504 246.309C678.174 249.266 680.27 254.676 683.77 256.678C689.361 259.879 698.335 259.843 702.314 266.031C711.373 280.105 700.282 289.52 707.942 303.967C713.064 313.636 721.262 314.352 729.108 321.179C737.161 328.182 740.188 337.69 735.715 347.121C733.778 351.198 725.826 359.265 732.938 362.351C734.294 362.937 736.38 363.415 737.848 363.664C751.434 365.962 764.913 373.93 771.142 386.239C787.053 417.691 757.583 444.043 729.805 454.884C707.548 463.573 670.323 469.077 647.907 461.197C614.649 449.515 585.068 421.239 585.531 381.612C585.642 371.943 593.175 361.988 589.228 352.459C586.653 346.234 582.041 341.233 578.833 335.372C575.45 329.188 573.753 322.123 574.035 315.115C574.195 311.069 575.025 306.996 576.966 303.417C580.684 296.575 588.243 295.636 593.228 290.194C596.504 286.61 598.372 281.962 598.563 277.174C598.76 272.152 595.845 267.479 597.563 262.437C599.771 255.874 607.489 254.24 613.739 254.204Z" fill="#0C1540"/>
<path d="M487.349 367.757C486.365 368.753 489.855 373.764 491.126 374.35C494.611 374.853 496.142 373.494 499.345 374.433C496.685 373.224 492.908 370.76 490.738 368.81C489.616 367.658 488.727 366.092 487.349 367.757Z" fill="#FFBE8E"/>
<path d="M490.381 372.301C486.264 371.668 476.912 371.258 476.258 371.233C474.348 371.253 469.566 370.703 468.135 371.144C467.215 371.424 465.055 373.188 464.662 374.278C464.135 375.72 465.518 376.741 465.518 376.741C464.475 378.448 469.289 380.144 468.944 380.502C467.507 381.981 469.146 384.341 476.481 384.492C476.923 384.502 494.855 388.341 500.69 389.108C501.467 385.648 508.122 376.508 507.946 376.441C504.738 375.502 493.871 372.809 490.381 372.301Z" fill="#FFBE8E"/>
<path d="M567.449 467.94C567.237 466.727 566.864 465.648 566.412 464.812C558.007 449.567 516.851 398.408 510.68 381.16C505.472 384.247 500.924 386.472 497.195 387.504C507.919 415.667 542.719 482.854 554.997 482.014C566.247 481.251 568.386 473.299 567.449 467.94Z" fill="#FFBE8E"/>
<path d="M634.145 404.443C631.251 399.167 607.946 378.926 601.893 378.381C600.51 378.257 599.217 378.724 598.345 379.657C592.728 385.69 584.004 399.966 574.769 415.077C568.519 425.301 562.13 435.754 556.295 444.396C554.172 441.533 551.938 438.54 549.65 435.484C536.038 417.256 519.09 394.571 515.457 384.881L495.637 393.731C505.185 417.743 533.479 471.646 549.209 484.142C549.395 484.298 550.842 485.06 552.581 485.963C556.63 488.059 561.598 487.483 565.018 484.5C583.594 468.284 640.911 416.778 634.145 404.443Z" fill="#5E6EA4"/>
<path d="M507.935 376.436L510.76 381.369L502.073 387.968L497.546 385.825L507.935 376.436Z" fill="#FFBE8E"/>
<path d="M601.861 525.652L585.371 548.663C585.371 548.663 599.574 562.638 612.388 561.72L617.857 550.712L619.362 564.116C685.238 584.036 744.242 560.174 744.242 560.174C746.816 539.497 742.369 506.256 742.369 506.256L601.861 525.652Z" fill="#5E6EA4"/>
<path d="M653.455 316.183C651.609 317.703 639.624 327.009 633.288 329.204C633.437 330.749 636.087 351.509 631.772 355.727C633.943 363.814 657.226 362.455 662.668 348.148C659.721 344.371 654.965 323.975 653.455 316.183Z" fill="#FFBE8E"/>
<path d="M747.874 535.418C718.862 561.936 618.787 541.497 601.924 535.013C589.578 530.256 604.568 438.18 595.057 399.284C592.312 388.142 594.382 374.043 608.207 364.934C611.776 362.589 631.766 355.16 631.766 355.16C631.766 355.16 636.379 358.568 642.076 358.568C652.534 358.568 662.672 347.447 662.672 347.447C662.672 347.447 680.647 350.995 686.717 351.991C704.861 354.994 714.229 370.209 719.421 384.568C721.383 390.009 723.394 397.059 725.357 405.126C728.49 417.923 731.57 433.303 734.406 448.918C742.076 491.247 747.874 535.418 747.874 535.418Z" fill="#4770FF"/>
<path d="M652.534 309.574C651.029 298.675 643.214 287.761 631.831 287.761C621.229 287.766 613.01 292.492 611.356 302.359C610.766 305.896 616.245 341.316 631.767 341.316C639.336 341.316 654.657 327.912 653.949 319.825C653.954 319.83 653.029 313.107 652.534 309.574Z" fill="#FFBE8E"/>
<path opacity="0.41" d="M734.411 448.925L673.37 397.943L725.357 405.133C728.49 417.931 731.57 433.311 734.411 448.925Z" fill="#5A5D71"/>
<path d="M712.101 508.371C711.484 509.616 716.383 513.331 717.777 513.502C721.251 512.936 720.9 510.955 724.24 510.882C721.33 510.535 718.336 509.554 715.655 508.356C714.229 507.593 712.889 506.369 712.101 508.371Z" fill="#FFBE8E"/>
<path d="M726.772 510.762C723.436 510.84 719.899 511.203 716.425 511.773C712.308 512.411 703.275 514.839 702.648 515.015C700.839 515.612 696.115 516.53 694.892 517.376C694.11 517.915 692.61 520.249 692.578 521.406C692.535 522.931 694.179 523.492 694.179 523.492C693.722 525.426 698.839 525.587 698.621 526.033C697.733 527.87 700.041 529.618 707.052 527.553C707.478 527.429 725.756 525.681 731.543 524.648C731.181 521.126 726.958 510.777 726.772 510.762Z" fill="#FFBE8E"/>
<path d="M697.441 364.897C692.403 368.056 672.285 394.969 674.647 396.743C687.637 406.526 736.528 426.425 758.061 440.322C784.478 457.363 787.233 433.309 780.951 425.631C764.381 405.411 709.085 357.614 697.441 364.897Z" fill="#FFBE8E"/>
<path d="M765.934 424.299C764.977 425.103 764.221 425.969 763.726 426.784C754.689 441.682 731.049 502.484 719.102 516.542C724.506 519.296 728.804 521.942 731.639 524.525C750.816 501.016 791.808 437.231 784.722 427.417C778.243 418.422 770.147 420.746 765.934 424.299Z" fill="#FFBE8E"/>
<path d="M782.132 419.329C768.711 403.513 710.564 350.959 695.291 360.836C690.179 364.146 671.721 388.682 671.731 394.611C671.737 395.965 672.333 397.179 673.38 397.942C679.402 402.341 732.772 427.178 750.891 436.811C749.321 441.21 747.656 445.982 745.938 450.885C738.48 472.231 729.203 498.801 723.16 507.266L741.986 517.984C756.003 497.483 783.781 449.697 787.414 428.298C787.669 426.794 787.222 425.274 786.222 424.107C784.584 422.188 782.174 419.381 782.132 419.329Z" fill="#5E6EA4"/>
<path d="M439.474 585.541C423.648 690.093 411.887 767.925 411.887 767.925C416.398 772.09 426.489 773.652 433.723 770.83C433.723 770.83 462.651 695.088 493.052 606.965C513.106 548.86 445.932 542.89 439.474 585.541Z" fill="#555858"/>
<path d="M691.77 560.937C691.77 560.947 691.77 560.957 691.77 560.968C691.77 563.753 689.44 566.031 686.578 566.031H564.444C561.587 566.031 559.247 563.758 559.247 560.968C559.247 560.957 559.252 560.947 559.252 560.937H691.77Z" fill="#004143"/>
<path d="M546.07 455.917L571.529 559.598C571.944 561.252 571.577 566.025 565.236 566.025L461.751 564.754V449.101L536.692 449.127C541.049 449.023 544.916 451.824 546.07 455.917Z" fill="#004143"/>
<path d="M405.466 449.08H537.751C539.123 449.08 540.32 449.967 540.687 451.254L567.928 562.264C568.47 564.152 567.008 566.025 564.997 566.025H441.819C435.069 566.025 429.143 561.631 427.345 555.287L402.535 452.836C401.998 450.953 403.456 449.08 405.466 449.08Z" fill="#707FB0"/>
<path d="M526.319 559.641H560.007L553.198 529.554L526.319 559.641Z" fill="#4770FF"/>
<path d="M542.725 483.228L535.99 453.458H526.431C494.807 488.851 463.177 524.245 431.559 559.639H474.449L542.725 483.228Z" fill="#4770FF"/>
</svg>
