<svg width="128" height="128" viewBox="0 0 128 128" fill="none" xmlns="http://www.w3.org/2000/svg">
<path d="M103.2 31.7332L94.9334 38.3998C100.8 45.5998 104 54.6665 104 63.7331C104 85.8665 86.1334 103.733 64.0001 103.733C61.6001 103.733 58.9334 103.466 56.5334 102.933L54.6667 113.333C57.8667 113.866 61.0667 114.133 64.0001 114.133C92.0001 114.133 114.667 91.4665 114.667 63.4665C114.667 52.2665 110.667 40.7998 103.2 31.7332Z" fill="#4770FF"/>
<path d="M82.6667 21.3333L114.4 25.5999L88.2667 51.7333L82.6667 21.3333Z" fill="#4770FF"/>
<path d="M63.9999 13.3333C35.9999 13.3333 13.3333 35.9999 13.3333 63.9999C13.3333 76.2666 17.5999 87.9999 25.5999 97.0666L33.5999 90.1333C27.4666 82.9333 23.9999 73.5999 23.9999 63.9999C23.9999 41.8666 41.8666 23.9999 63.9999 23.9999C66.3999 23.9999 69.0666 24.2666 71.4666 24.7999L73.3333 14.3999C70.3999 13.5999 67.1999 13.3333 63.9999 13.3333Z" fill="#4770FF"/>
<path d="M45.3327 106.667L13.5994 102.4L39.7327 76.2666L45.3327 106.667Z" fill="#4770FF"/>
</svg>
