<svg width="117" height="117" viewBox="0 0 117 117" fill="none" xmlns="http://www.w3.org/2000/svg">
<path d="M71.1138 77.9755L78.007 71.0847L107.303 100.381L100.41 107.272L71.1138 77.9755Z" fill="#A6A6A6"/>
<path d="M48.75 87.75C70.2891 87.75 87.75 70.2891 87.75 48.75C87.75 27.2109 70.2891 9.75 48.75 9.75C27.2109 9.75 9.75 27.2109 9.75 48.75C9.75 70.2891 27.2109 87.75 48.75 87.75Z" fill="#A6A6A6"/>
<path d="M79.0969 86.1411L85.9877 79.2478L107.184 100.444L100.291 107.338L79.0969 86.1411Z" fill="#37474F"/>
<path d="M48.75 80.4375C66.2505 80.4375 80.4375 66.2505 80.4375 48.75C80.4375 31.2495 66.2505 17.0625 48.75 17.0625C31.2495 17.0625 17.0625 31.2495 17.0625 48.75C17.0625 66.2505 31.2495 80.4375 48.75 80.4375Z" fill="#4770FF"/>
<path d="M65.5685 34.6125C61.4247 29.7375 55.331 26.8125 48.7497 26.8125C42.1685 26.8125 36.0747 29.7375 31.931 34.6125C30.956 35.5875 31.1997 37.2938 32.1747 38.025C33.1497 39 34.856 38.7563 35.5872 37.7813C38.9997 33.8813 43.631 31.6875 48.7497 31.6875C53.8685 31.6875 58.4997 33.8813 61.9122 37.7813C62.3997 38.2688 63.131 38.7563 63.8622 38.7563C64.3497 38.7563 65.081 38.5125 65.3247 38.2688C66.2997 37.2938 66.2997 35.5875 65.5685 34.6125Z" fill="#BBDEFB"/>
</svg>
