<svg width="107" height="107" viewBox="0 0 107 107" fill="none" xmlns="http://www.w3.org/2000/svg">
<path d="M22.2918 26.7499C16.0502 26.7499 11.146 21.8458 11.146 15.6041C11.146 9.36242 16.0502 4.45825 22.2918 4.45825C28.5335 4.45825 33.4377 9.36242 33.4377 15.6041C33.4377 21.8458 28.5335 26.7499 22.2918 26.7499Z" fill="#FFDAA3"/>
<path d="M4.4585 49.0416V66.8749L11.146 71.3332L13.3752 102.542H31.2085L33.4377 71.3332L40.1252 66.8749V49.0416C40.1252 39.2333 32.1002 31.2083 22.2918 31.2083C12.4835 31.2083 4.4585 39.2333 4.4585 49.0416Z" fill="#404040"/>
<path d="M49.933 90.0582C48.5955 95.6312 47.7038 98.0832 44.583 98.0832C43.2455 98.0832 41.908 96.9687 40.3476 95.6312C38.1184 93.8478 35.4434 91.3957 31.208 91.3957V95.8541C33.6601 95.8541 35.4434 97.4145 37.4497 98.9749C39.4559 100.535 41.6851 102.542 44.583 102.542C51.4934 102.542 53.0538 96.077 54.3913 90.9499C55.7288 85.1541 56.6205 82.4791 60.1872 82.4791V78.0208C52.8309 78.0208 51.0476 84.9312 49.933 90.0582Z" fill="#263238"/>
<path d="M32.0998 89.1665H22.2915V98.0832H31.4311L32.0998 89.1665Z" fill="#263238"/>
<path d="M80.2502 102.542C92.5615 102.542 102.542 92.5613 102.542 80.2499C102.542 67.9386 92.5615 57.9583 80.2502 57.9583C67.9388 57.9583 57.9585 67.9386 57.9585 80.2499C57.9585 92.5613 67.9388 102.542 80.2502 102.542Z" fill="#496FF5"/>
<path d="M78.0207 75.7916C78.2436 76.2374 78.2436 76.4604 78.6894 76.6833C78.9123 76.9062 79.3582 77.1291 79.804 77.5749C80.2498 77.7978 80.9186 78.0208 81.5873 78.2437C82.7019 78.6895 83.5936 79.1353 84.4853 79.5812C85.3769 80.027 86.0457 80.4728 86.7144 81.1416C87.3832 81.8103 87.829 82.4791 88.2748 83.1478C88.7207 84.0395 88.7207 84.9312 88.7207 86.0458C88.7207 86.9374 88.4977 87.8291 88.2748 88.7208C88.0519 89.6124 87.6061 90.2812 86.9373 90.727C86.2686 91.3958 85.5998 91.8416 84.9311 92.0645C84.0394 92.5103 83.1478 92.7333 82.2561 92.7333V96.077H79.5811V92.7333C78.6894 92.7333 77.7978 92.5103 76.9061 92.0645C76.0144 91.6187 75.3457 91.1728 74.6769 90.727C74.0082 90.0583 73.5623 89.3895 73.1165 88.2749C72.6707 87.3833 72.4478 86.2687 72.4478 84.9312H77.3519C77.3519 85.8228 77.3519 86.4916 77.5748 86.9374C77.7978 87.3833 78.0207 87.8291 78.4665 88.2749C78.9123 88.4978 79.1353 88.7208 79.5811 88.9437C80.0269 89.1666 80.4728 89.1666 80.9186 89.1666C81.3644 89.1666 81.8103 89.1666 82.2561 88.9437C82.7019 88.7208 82.9248 88.4978 83.1477 88.2749C83.3707 88.052 83.5936 87.6062 83.8165 87.3833C84.0394 86.9374 84.0394 86.7145 84.0394 86.2687C84.0394 85.8228 84.0394 85.377 83.8165 84.9312C83.5936 84.4853 83.5936 84.2624 83.1477 84.0395C82.9248 83.8166 82.479 83.3708 82.0332 83.1478C81.5873 82.9249 81.1415 82.702 80.4727 82.4791C79.3582 82.0333 78.4665 81.5874 77.5748 81.1416C76.6832 80.6958 76.0144 80.2499 75.3457 79.5812C74.6769 78.9124 74.2311 78.2437 73.7853 77.5749C73.3394 76.6833 73.3394 75.7916 73.3394 74.677C73.3394 73.7853 73.5623 72.8937 73.7853 72.002C74.0082 71.3333 74.454 70.4416 75.1228 69.9958C75.7915 69.327 76.4602 68.8812 77.129 68.6583C78.0207 68.2124 78.9123 67.9895 79.804 67.9895V64.4229H82.479V67.9895C83.3707 68.2124 84.2623 68.4353 85.154 68.8812C86.0457 69.327 86.4915 69.7729 87.1602 70.4416C87.6061 71.1104 88.0519 71.7791 88.4978 72.6708C88.7207 73.5624 88.9436 74.677 88.9436 75.7916H84.0394C84.0394 74.4541 83.8165 73.5624 83.1477 72.8937C82.7019 72.2249 81.8103 72.002 80.9186 72.002C80.4728 72.002 80.0269 72.002 79.5811 72.2249C79.1353 72.4479 78.9123 72.6708 78.6894 72.8937C78.2436 72.8937 78.0207 73.1166 78.0207 73.5624C78.0207 74.0083 77.7978 74.2312 77.7978 74.677C77.7978 75.1228 77.7978 75.5687 78.0207 75.7916Z" fill="white"/>
</svg>
