<svg width="118" height="118" viewBox="0 0 118 118" fill="none" xmlns="http://www.w3.org/2000/svg">
<path d="M71.2915 105.708V94.4L77.6832 95.6292C84.8123 97.1042 91.4498 91.9417 91.9415 84.8125L93.4165 68.8333L100.546 65.8833C103.004 64.9 103.987 61.95 102.512 59.4917L93.4165 44.25C91.9415 25.5667 81.3707 7.375 54.0832 7.375C26.0582 7.375 12.2915 28.025 12.2915 49.1667C12.2915 58.2625 15.4873 66.1292 20.404 72.7667C24.829 78.9125 27.0415 86.2875 27.0415 93.6625V105.462H71.2915V105.708Z" fill="#FFDAA3"/>
<path d="M71.2918 105.708V94.3999L54.0835 90.9583V105.708H71.2918Z" fill="#FFC165"/>
<path d="M82.354 56.5417C84.3906 56.5417 86.0415 54.8908 86.0415 52.8542C86.0415 50.8177 84.3906 49.1667 82.354 49.1667C80.3175 49.1667 78.6665 50.8177 78.6665 52.8542C78.6665 54.8908 80.3175 56.5417 82.354 56.5417Z" fill="#404040"/>
<path d="M52.6082 7.375C30.2373 7.375 12.2915 25.3208 12.2915 47.6917C12.2915 74.9792 27.0415 75.7167 27.0415 93.4167L33.4332 91.2042C38.5957 89.4833 43.0207 85.55 44.9873 80.3875L51.8707 63.6708L66.3748 56.5417V41.7917C66.3748 41.7917 83.5832 32.45 83.5832 16.4708C76.2082 10.325 63.179 7.375 52.6082 7.375Z" fill="#404040"/>
<path d="M51.6248 5.1626C50.1498 5.1626 49.1665 6.14593 49.1665 7.62093V41.7918C49.1665 43.2668 50.1498 44.2501 51.6248 44.2501C53.0998 44.2501 54.0832 43.2668 54.0832 41.7918V7.62093C54.0832 6.14593 53.0998 5.1626 51.6248 5.1626Z" fill="#1639B8"/>
<path d="M90.7128 78.4206C71.292 78.4206 65.392 66.3748 65.1461 65.8832C64.6545 64.654 63.1795 64.1623 61.9503 64.654C60.7211 65.1457 60.2295 66.6207 60.7211 67.8498C60.967 68.5873 68.0961 83.3373 90.7128 83.3373C92.1878 83.3373 93.1711 82.354 93.1711 80.879C93.1711 79.404 91.942 78.4206 90.7128 78.4206Z" fill="#1639B8"/>
<path d="M90.9582 86.0416C93.6736 86.0416 95.8748 83.8403 95.8748 81.1249C95.8748 78.4095 93.6736 76.2083 90.9582 76.2083C88.2428 76.2083 86.0415 78.4095 86.0415 81.1249C86.0415 83.8403 88.2428 86.0416 90.9582 86.0416Z" fill="#4770FF"/>
<path d="M51.6248 73.7499C61.1287 73.7499 68.8332 66.0455 68.8332 56.5416C68.8332 47.0377 61.1287 39.3333 51.6248 39.3333C42.1209 39.3333 34.4165 47.0377 34.4165 56.5416C34.4165 66.0455 42.1209 73.7499 51.6248 73.7499Z" fill="#4770FF"/>
<path d="M51.6248 66.3749C57.0556 66.3749 61.4582 61.9724 61.4582 56.5416C61.4582 51.1108 57.0556 46.7083 51.6248 46.7083C46.194 46.7083 41.7915 51.1108 41.7915 56.5416C41.7915 61.9724 46.194 66.3749 51.6248 66.3749Z" fill="#1639B8"/>
</svg>
