<svg width="311" height="76" viewBox="0 0 311 76" fill="none" xmlns="http://www.w3.org/2000/svg">
<g opacity="0.300003">
<g opacity="0.300003">
<path opacity="0.300003" d="M4.88086 8.98711L20.7318 18.1387H61.0105V8.98711H4.88086Z" fill="black"/>
</g>
<g opacity="0.300003">
<path opacity="0.300003" d="M0.0115505 69.9976C0.0115505 69.9982 0.0109582 69.9995 0.0109582 70L0.00760162 69.9991C2.88733 60.0079 8.67128 51.2474 16.3866 44.6909L30.9975 69.9976H39.4512L22.3112 40.3333C28.0685 36.6929 34.5871 34.1476 41.5744 32.9902L0 8.98719V69.9976H0.0115505ZM24.4027 31.5299C17.9635 34.6689 12.1821 38.9479 7.32115 44.1041V21.668L24.4028 31.53" fill="black"/>
</g>
<g opacity="0.300003">
<path opacity="0.300003" d="M49.4707 34.7312L61.0104 34.7264V43.8779H27.189C27.189 43.8779 25.6346 41.1857 25.6345 41.1857C32.6857 37.1816 40.8109 34.8503 49.4707 34.7312Z" fill="black"/>
</g>
<g opacity="0.300003">
<path opacity="0.300003" d="M36.637 60.846L41.935 69.9976H60.6618V60.846H36.637Z" fill="black"/>
</g>
</g>
<path d="M5.86816 7.9998L21.7191 17.1514H61.9978V7.9998H5.86816Z" fill="#F78F01"/>
<path d="M0.998855 69.0103C0.998855 69.0109 0.998263 69.0122 0.998263 69.0127L0.994906 69.0118C3.87464 59.0206 9.65859 50.2601 17.3739 43.7036L31.9849 69.0103H40.4386L23.2985 39.346C29.0558 35.7056 35.5744 33.1603 42.5617 32.0029L0.987305 7.99989V69.0103H0.998855ZM25.39 30.5426C18.9508 33.6816 13.1695 37.9606 8.30846 43.1168V20.6807L25.3901 30.5427" fill="#FBBF13"/>
<path d="M50.4581 33.7439L61.9977 33.7391V42.8906H28.1763C28.1763 42.8906 26.6219 40.1984 26.6218 40.1984C33.673 36.1943 41.7982 33.863 50.4581 33.7439Z" fill="#F78F01"/>
<path d="M37.624 59.8587L42.9221 69.0103H61.6489V59.8587H37.624Z" fill="#F78F01"/>
<path d="M80.3682 14.5521H86.4953C89.5777 14.5521 91.8331 15.1911 93.2615 16.4692C94.715 17.7222 95.4418 19.7771 95.4418 22.6339C95.4418 26.5433 94.1888 28.9115 91.6828 29.7385L96.0056 45H91.9083L87.9238 30.7158H84.6158V45H80.3682V14.5521ZM86.2322 27.671C88.0616 27.671 89.3647 27.3076 90.1416 26.5809C90.9435 25.8542 91.3445 24.5385 91.3445 22.6339C91.3445 21.3809 91.2066 20.4036 90.931 19.7019C90.6553 18.9752 90.1666 18.4489 89.465 18.1231C88.7633 17.7723 87.7734 17.5969 86.4953 17.5969H84.6158V27.671H86.2322ZM105.537 45.3007C103.858 45.3007 102.555 44.9875 101.627 44.361C100.7 43.7094 100.049 42.7571 99.6727 41.5041C99.2968 40.2511 99.1088 38.6222 99.1088 36.6174V31.6555C99.1088 28.6483 99.5725 26.4556 100.5 25.0773C101.452 23.6739 103.131 22.9723 105.537 22.9723C107.291 22.9723 108.607 23.3356 109.484 24.0624C110.386 24.7891 110.975 25.8166 111.25 27.1447C111.551 28.4479 111.701 30.2146 111.701 32.4449V34.2117H103.131V38.5721C103.131 39.9003 103.319 40.8651 103.695 41.4665C104.096 42.0429 104.722 42.3311 105.574 42.3311C106.426 42.3311 107.003 42.0429 107.303 41.4665C107.604 40.8651 107.755 39.9629 107.755 38.7601V37.4444H111.664V38.2714C111.664 40.5518 111.175 42.2935 110.198 43.4964C109.221 44.6993 107.667 45.3007 105.537 45.3007ZM107.755 32.0314V30.0768C107.755 28.5982 107.604 27.5457 107.303 26.9192C107.028 26.2676 106.426 25.9419 105.499 25.9419C104.848 25.9419 104.346 26.0922 103.996 26.3929C103.67 26.6937 103.444 27.1949 103.319 27.8965C103.194 28.5732 103.131 29.563 103.131 30.8662V32.0314H107.755ZM115.344 23.273H119.065V25.3404C119.792 24.5385 120.581 23.9371 121.433 23.5361C122.311 23.1101 123.225 22.8971 124.178 22.8971C126.032 22.8971 127.21 23.8118 127.711 25.6411C129.215 23.8118 131.019 22.8971 133.124 22.8971C134.252 22.8971 135.166 23.3106 135.868 24.1375C136.595 24.9645 136.958 26.2301 136.958 27.9341V45H133.274V28.1973C133.274 27.1949 133.111 26.5057 132.786 26.1298C132.46 25.7289 131.996 25.5284 131.395 25.5284C130.844 25.5284 130.267 25.6913 129.666 26.0171C129.064 26.3178 128.513 26.7438 128.012 27.2951V27.9341V45H124.328V28.1973C124.328 27.1949 124.165 26.5057 123.839 26.1298C123.513 25.7289 123.05 25.5284 122.448 25.5284C121.922 25.5284 121.358 25.6913 120.757 26.0171C120.155 26.3178 119.592 26.7438 119.065 27.2951V45H115.344V23.273ZM146.87 45.3007C144.565 45.3007 142.923 44.6241 141.946 43.2709C140.994 41.8926 140.517 39.9003 140.517 37.294V30.9789C140.517 28.3727 140.994 26.3929 141.946 25.0397C142.923 23.6614 144.565 22.9723 146.87 22.9723C149.151 22.9723 150.767 23.6614 151.719 25.0397C152.697 26.3929 153.185 28.3727 153.185 30.9789V37.294C153.185 39.9003 152.697 41.8926 151.719 43.2709C150.767 44.6241 149.151 45.3007 146.87 45.3007ZM146.87 42.3311C147.597 42.3311 148.123 42.1181 148.449 41.6921C148.775 41.2661 148.975 40.7398 149.05 40.1133C149.126 39.4868 149.163 38.6348 149.163 37.5572V30.7534C149.163 29.6758 149.126 28.8238 149.05 28.1973C148.975 27.5457 148.775 27.0069 148.449 26.5809C148.123 26.1549 147.597 25.9419 146.87 25.9419C146.143 25.9419 145.605 26.1549 145.254 26.5809C144.928 27.0069 144.728 27.5457 144.652 28.1973C144.577 28.8238 144.54 29.6758 144.54 30.7534V37.5572C144.54 38.6348 144.577 39.4868 144.652 40.1133C144.728 40.7398 144.928 41.2661 145.254 41.6921C145.605 42.1181 146.143 42.3311 146.87 42.3311ZM162.651 45.3007C159.518 45.3007 157.952 43.5716 157.952 40.1133V25.9419H155.659V23.273H157.952V16.9203H161.974V23.273H165.47V25.9419H161.974V39.8502C161.974 40.7273 162.112 41.3412 162.387 41.6921C162.663 42.0429 163.189 42.2183 163.966 42.2183C164.467 42.2183 164.956 42.1807 165.432 42.1056V45.0752C164.43 45.2255 163.503 45.3007 162.651 45.3007ZM168.763 14.5521H180.567V17.7097H173.011V27.7838H179.138V30.791H173.011V41.9552H180.642V45H168.763V14.5521ZM183.733 23.273H187.454V25.3404C188.181 24.5385 188.97 23.9371 189.822 23.5361C190.699 23.1101 191.614 22.8971 192.566 22.8971C194.421 22.8971 195.599 23.8118 196.1 25.6411C197.603 23.8118 199.408 22.8971 201.513 22.8971C202.641 22.8971 203.555 23.3106 204.257 24.1375C204.984 24.9645 205.347 26.2301 205.347 27.9341V45H201.663V28.1973C201.663 27.1949 201.5 26.5057 201.175 26.1298C200.849 25.7289 200.385 25.5284 199.784 25.5284C199.232 25.5284 198.656 25.6913 198.055 26.0171C197.453 26.3178 196.902 26.7438 196.401 27.2951V27.9341V45H192.717V28.1973C192.717 27.1949 192.554 26.5057 192.228 26.1298C191.902 25.7289 191.439 25.5284 190.837 25.5284C190.311 25.5284 189.747 25.6913 189.146 26.0171C188.544 26.3178 187.98 26.7438 187.454 27.2951V45H183.733V23.273ZM209.282 23.273H213.304V25.0021C214.482 23.6489 215.86 22.9723 217.439 22.9723C219.419 22.9723 220.735 23.8243 221.386 25.5284C222.063 27.2074 222.401 29.0744 222.401 31.1293V36.3919C222.401 39.0482 221.988 41.2034 221.161 42.8574C220.359 44.4863 218.968 45.3007 216.988 45.3007C215.71 45.3007 214.482 44.6617 213.304 43.3836V52.1421H209.282V23.273ZM216.199 42.1432C217.126 42.1432 217.715 41.6795 217.965 40.7523C218.241 39.8 218.379 38.3466 218.379 36.3919V31.1293C218.379 29.5254 218.229 28.2975 217.928 27.4455C217.627 26.5684 217.001 26.1298 216.048 26.1298C215.121 26.1298 214.206 26.5057 213.304 27.2575V41.1658C214.181 41.8174 215.146 42.1432 216.199 42.1432ZM226.434 14.5521H230.456V45H226.434V14.5521ZM240.625 45.3007C238.319 45.3007 236.678 44.6241 235.701 43.2709C234.748 41.8926 234.272 39.9003 234.272 37.294V30.9789C234.272 28.3727 234.748 26.3929 235.701 25.0397C236.678 23.6614 238.319 22.9723 240.625 22.9723C242.905 22.9723 244.522 23.6614 245.474 25.0397C246.451 26.3929 246.94 28.3727 246.94 30.9789V37.294C246.94 39.9003 246.451 41.8926 245.474 43.2709C244.522 44.6241 242.905 45.3007 240.625 45.3007ZM240.625 42.3311C241.352 42.3311 241.878 42.1181 242.204 41.6921C242.529 41.2661 242.73 40.7398 242.805 40.1133C242.88 39.4868 242.918 38.6348 242.918 37.5572V30.7534C242.918 29.6758 242.88 28.8238 242.805 28.1973C242.73 27.5457 242.529 27.0069 242.204 26.5809C241.878 26.1549 241.352 25.9419 240.625 25.9419C239.898 25.9419 239.359 26.1549 239.009 26.5809C238.683 27.0069 238.482 27.5457 238.407 28.1973C238.332 28.8238 238.294 29.6758 238.294 30.7534V37.5572C238.294 38.6348 238.332 39.4868 238.407 40.1133C238.482 40.7398 238.683 41.2661 239.009 41.6921C239.359 42.1181 239.898 42.3311 240.625 42.3311ZM250.278 47.3682C251.782 47.3682 252.809 47.2554 253.361 47.0299C253.937 46.8043 254.225 46.3783 254.225 45.7518C254.225 45.4511 253.949 44.1229 253.398 41.7673L249.038 23.273H253.097L256.029 39.5119L258.849 23.273H262.908L257.721 46.2029C257.37 47.7315 256.631 48.8217 255.503 49.4732C254.376 50.1248 252.797 50.4506 250.767 50.4506H250.278V47.3682ZM271.351 45.3007C269.672 45.3007 268.369 44.9875 267.442 44.361C266.515 43.7094 265.863 42.7571 265.487 41.5041C265.111 40.2511 264.923 38.6222 264.923 36.6174V31.6555C264.923 28.6483 265.387 26.4556 266.314 25.0773C267.266 23.6739 268.945 22.9723 271.351 22.9723C273.105 22.9723 274.421 23.3356 275.298 24.0624C276.2 24.7891 276.789 25.8166 277.065 27.1447C277.366 28.4479 277.516 30.2146 277.516 32.4449V34.2117H268.945V38.5721C268.945 39.9003 269.133 40.8651 269.509 41.4665C269.91 42.0429 270.537 42.3311 271.389 42.3311C272.241 42.3311 272.817 42.0429 273.118 41.4665C273.419 40.8651 273.569 39.9629 273.569 38.7601V37.4444H277.478V38.2714C277.478 40.5518 276.99 42.2935 276.012 43.4964C275.035 44.6993 273.481 45.3007 271.351 45.3007ZM273.569 32.0314V30.0768C273.569 28.5982 273.419 27.5457 273.118 26.9192C272.842 26.2676 272.241 25.9419 271.314 25.9419C270.662 25.9419 270.161 26.0922 269.81 26.3929C269.484 26.6937 269.259 27.1949 269.133 27.8965C269.008 28.5732 268.945 29.563 268.945 30.8662V32.0314H273.569ZM287.173 45.3007C285.494 45.3007 284.191 44.9875 283.263 44.361C282.336 43.7094 281.685 42.7571 281.309 41.5041C280.933 40.2511 280.745 38.6222 280.745 36.6174V31.6555C280.745 28.6483 281.209 26.4556 282.136 25.0773C283.088 23.6739 284.767 22.9723 287.173 22.9723C288.927 22.9723 290.243 23.3356 291.12 24.0624C292.022 24.7891 292.611 25.8166 292.886 27.1447C293.187 28.4479 293.338 30.2146 293.338 32.4449V34.2117H284.767V38.5721C284.767 39.9003 284.955 40.8651 285.331 41.4665C285.732 42.0429 286.358 42.3311 287.21 42.3311C288.062 42.3311 288.639 42.0429 288.94 41.4665C289.24 40.8651 289.391 39.9629 289.391 38.7601V37.4444H293.3V38.2714C293.3 40.5518 292.811 42.2935 291.834 43.4964C290.857 44.6993 289.303 45.3007 287.173 45.3007ZM289.391 32.0314V30.0768C289.391 28.5982 289.24 27.5457 288.94 26.9192C288.664 26.2676 288.062 25.9419 287.135 25.9419C286.484 25.9419 285.982 26.0922 285.632 26.3929C285.306 26.6937 285.08 27.1949 284.955 27.8965C284.83 28.5732 284.767 29.563 284.767 30.8662V32.0314H289.391ZM302.017 45.3007C300.263 45.3007 298.834 44.7494 297.732 43.6468C296.654 42.5441 296.04 41.0656 295.89 39.2111L299.235 38.1962C299.436 39.5996 299.774 40.6396 300.25 41.3162C300.751 41.9928 301.453 42.3311 302.355 42.3311C303.057 42.3311 303.596 42.1306 303.972 41.7297C304.373 41.3036 304.573 40.7398 304.573 40.0381C304.573 39.4116 304.435 38.8478 304.16 38.3466C303.884 37.8454 303.433 37.3316 302.806 36.8054L299.085 33.6102C298.233 32.8835 297.569 32.1192 297.093 31.3172C296.642 30.4903 296.416 29.4879 296.416 28.31C296.416 26.631 296.917 25.3279 297.92 24.4007C298.922 23.4484 300.288 22.9723 302.017 22.9723C303.671 22.9723 304.962 23.511 305.889 24.5886C306.841 25.6411 307.392 27.0069 307.543 28.6859L304.836 29.7009C304.661 28.4729 304.373 27.5457 303.972 26.9192C303.571 26.2676 302.969 25.9419 302.167 25.9419C301.516 25.9419 300.99 26.1549 300.589 26.5809C300.213 27.0069 300.025 27.5332 300.025 28.1597C300.025 28.9616 300.388 29.6883 301.115 30.3399L304.949 33.8734C305.926 34.7755 306.678 35.6651 307.204 36.5422C307.756 37.4193 308.031 38.4844 308.031 39.7374C308.031 41.5417 307.493 42.92 306.415 43.8723C305.337 44.8246 303.871 45.3007 302.017 45.3007Z" fill="#646161"/>
<path d="M84.3574 70H82.6973V57.1973H78.1758V55.7227H88.8789V57.1973H84.3574V70ZM98.1172 70V63.0762C98.1172 62.2038 97.9186 61.5527 97.5215 61.123C97.1243 60.6934 96.5026 60.4785 95.6562 60.4785C94.5299 60.4785 93.7064 60.7845 93.1855 61.3965C92.6712 62.0085 92.4141 63.0111 92.4141 64.4043V70H90.793V54.8047H92.4141V59.4043C92.4141 59.9577 92.388 60.4167 92.3359 60.7812H92.4336C92.7526 60.2669 93.2051 59.8633 93.791 59.5703C94.3835 59.2708 95.0573 59.1211 95.8125 59.1211C97.1211 59.1211 98.1009 59.4336 98.752 60.0586C99.4095 60.6771 99.7383 61.6634 99.7383 63.0176V70H98.1172ZM107.6 70.1953C106.018 70.1953 104.768 69.7135 103.85 68.75C102.938 67.7865 102.482 66.4486 102.482 64.7363C102.482 63.0111 102.906 61.6406 103.752 60.625C104.605 59.6094 105.747 59.1016 107.18 59.1016C108.521 59.1016 109.582 59.5443 110.363 60.4297C111.145 61.3086 111.535 62.4707 111.535 63.916V64.9414H104.162C104.195 66.1979 104.51 67.1517 105.109 67.8027C105.715 68.4538 106.564 68.7793 107.658 68.7793C108.811 68.7793 109.95 68.5384 111.076 68.0566V69.502C110.503 69.7493 109.96 69.9251 109.445 70.0293C108.938 70.14 108.322 70.1953 107.6 70.1953ZM107.16 60.459C106.301 60.459 105.614 60.7389 105.1 61.2988C104.592 61.8587 104.292 62.6335 104.201 63.623H109.797C109.797 62.6009 109.569 61.8197 109.113 61.2793C108.658 60.7324 108.007 60.459 107.16 60.459ZM128.742 64.6387C128.742 66.3835 128.303 67.7474 127.424 68.7305C126.545 69.707 125.331 70.1953 123.781 70.1953C122.824 70.1953 121.975 69.9707 121.232 69.5215C120.49 69.0723 119.917 68.4277 119.514 67.5879C119.11 66.748 118.908 65.765 118.908 64.6387C118.908 62.8939 119.344 61.5365 120.217 60.5664C121.089 59.5898 122.3 59.1016 123.85 59.1016C125.347 59.1016 126.535 59.5996 127.414 60.5957C128.299 61.5918 128.742 62.9395 128.742 64.6387ZM120.588 64.6387C120.588 66.0059 120.861 67.0475 121.408 67.7637C121.955 68.4798 122.759 68.8379 123.82 68.8379C124.882 68.8379 125.686 68.4831 126.232 67.7734C126.786 67.0573 127.062 66.0124 127.062 64.6387C127.062 63.278 126.786 62.2461 126.232 61.543C125.686 60.8333 124.875 60.4785 123.801 60.4785C122.74 60.4785 121.939 60.8268 121.398 61.5234C120.858 62.2201 120.588 63.2585 120.588 64.6387ZM133.117 59.2969V66.2402C133.117 67.1126 133.316 67.7637 133.713 68.1934C134.11 68.623 134.732 68.8379 135.578 68.8379C136.698 68.8379 137.515 68.5319 138.029 67.9199C138.55 67.3079 138.811 66.3086 138.811 64.9219V59.2969H140.432V70H139.094L138.859 68.5645H138.771C138.439 69.0918 137.977 69.4954 137.385 69.7754C136.799 70.0553 136.128 70.1953 135.373 70.1953C134.071 70.1953 133.094 69.8861 132.443 69.2676C131.799 68.6491 131.477 67.6595 131.477 66.2988V59.2969H133.117ZM147.336 68.8574C147.622 68.8574 147.899 68.8379 148.166 68.7988C148.433 68.7533 148.645 68.7077 148.801 68.6621V69.9023C148.625 69.987 148.365 70.0553 148.02 70.1074C147.681 70.166 147.375 70.1953 147.102 70.1953C145.031 70.1953 143.996 69.1048 143.996 66.9238V60.5566H142.463V59.7754L143.996 59.1016L144.68 56.8164H145.617V59.2969H148.723V60.5566H145.617V66.8555C145.617 67.5 145.77 67.9948 146.076 68.3398C146.382 68.6849 146.802 68.8574 147.336 68.8574ZM157.854 67.0801C157.854 68.0762 157.482 68.8444 156.74 69.3848C155.998 69.9251 154.956 70.1953 153.615 70.1953C152.196 70.1953 151.089 69.9707 150.295 69.5215V68.0176C150.809 68.278 151.359 68.4831 151.945 68.6328C152.538 68.7826 153.107 68.8574 153.654 68.8574C154.501 68.8574 155.152 68.724 155.607 68.457C156.063 68.1836 156.291 67.7702 156.291 67.2168C156.291 66.8001 156.109 66.4453 155.744 66.1523C155.386 65.8529 154.683 65.5013 153.635 65.0977C152.639 64.7266 151.929 64.4043 151.506 64.1309C151.089 63.8509 150.777 63.5352 150.568 63.1836C150.367 62.832 150.266 62.4121 150.266 61.9238C150.266 61.0514 150.62 60.3646 151.33 59.8633C152.04 59.3555 153.013 59.1016 154.25 59.1016C155.402 59.1016 156.529 59.3359 157.629 59.8047L157.053 61.123C155.979 60.6803 155.005 60.459 154.133 60.459C153.365 60.459 152.785 60.5794 152.395 60.8203C152.004 61.0612 151.809 61.3932 151.809 61.8164C151.809 62.1029 151.88 62.347 152.023 62.5488C152.173 62.7507 152.411 62.9427 152.736 63.125C153.062 63.3073 153.687 63.571 154.611 63.916C155.881 64.3783 156.737 64.8438 157.18 65.3125C157.629 65.7812 157.854 66.3704 157.854 67.0801ZM163.957 68.8574C164.243 68.8574 164.52 68.8379 164.787 68.7988C165.054 68.7533 165.266 68.7077 165.422 68.6621V69.9023C165.246 69.987 164.986 70.0553 164.641 70.1074C164.302 70.166 163.996 70.1953 163.723 70.1953C161.652 70.1953 160.617 69.1048 160.617 66.9238V60.5566H159.084V59.7754L160.617 59.1016L161.301 56.8164H162.238V59.2969H165.344V60.5566H162.238V66.8555C162.238 67.5 162.391 67.9948 162.697 68.3398C163.003 68.6849 163.423 68.8574 163.957 68.8574ZM174.152 70L173.83 68.4766H173.752C173.218 69.1471 172.684 69.6029 172.15 69.8438C171.623 70.0781 170.962 70.1953 170.168 70.1953C169.107 70.1953 168.273 69.9219 167.668 69.375C167.069 68.8281 166.77 68.0501 166.77 67.041C166.77 64.8796 168.498 63.7467 171.955 63.6426L173.771 63.584V62.9199C173.771 62.0801 173.589 61.4616 173.225 61.0645C172.867 60.6608 172.29 60.459 171.496 60.459C170.604 60.459 169.595 60.7324 168.469 61.2793L167.971 60.0391C168.498 59.7526 169.074 59.528 169.699 59.3652C170.331 59.2025 170.962 59.1211 171.594 59.1211C172.87 59.1211 173.814 59.4043 174.426 59.9707C175.044 60.5371 175.354 61.4453 175.354 62.6953V70H174.152ZM170.49 68.8574C171.499 68.8574 172.29 68.5807 172.863 68.0273C173.443 67.474 173.732 66.6992 173.732 65.7031V64.7363L172.111 64.8047C170.822 64.8503 169.891 65.0521 169.318 65.4102C168.752 65.7617 168.469 66.3118 168.469 67.0605C168.469 67.6465 168.645 68.0924 168.996 68.3984C169.354 68.7044 169.852 68.8574 170.49 68.8574ZM190.246 60.5566H187.521V70H185.9V60.5566H183.986V59.8242L185.9 59.2383V58.6426C185.9 56.0124 187.049 54.6973 189.348 54.6973C189.914 54.6973 190.578 54.8112 191.34 55.0391L190.92 56.3379C190.295 56.1361 189.761 56.0352 189.318 56.0352C188.706 56.0352 188.254 56.2402 187.961 56.6504C187.668 57.054 187.521 57.7051 187.521 58.6035V59.2969H190.246V60.5566ZM183.527 60.5566H180.803V70H179.182V60.5566H177.268V59.8242L179.182 59.2383V58.6426C179.182 56.0124 180.331 54.6973 182.629 54.6973C183.195 54.6973 183.859 54.8112 184.621 55.0391L184.201 56.3379C183.576 56.1361 183.042 56.0352 182.6 56.0352C181.988 56.0352 181.535 56.2402 181.242 56.6504C180.949 57.054 180.803 57.7051 180.803 58.6035V59.2969H183.527V60.5566ZM193.889 70H192.268V59.2969H193.889V70ZM192.131 56.3965C192.131 56.0254 192.222 55.7552 192.404 55.5859C192.587 55.4102 192.814 55.3223 193.088 55.3223C193.348 55.3223 193.573 55.4102 193.762 55.5859C193.951 55.7617 194.045 56.0319 194.045 56.3965C194.045 56.7611 193.951 57.0345 193.762 57.2168C193.573 57.3926 193.348 57.4805 193.088 57.4805C192.814 57.4805 192.587 57.3926 192.404 57.2168C192.222 57.0345 192.131 56.7611 192.131 56.3965ZM204.68 70V63.0762C204.68 62.2038 204.481 61.5527 204.084 61.123C203.687 60.6934 203.065 60.4785 202.219 60.4785C201.099 60.4785 200.279 60.7812 199.758 61.3867C199.237 61.9922 198.977 62.9915 198.977 64.3848V70H197.355V59.2969H198.674L198.938 60.7617H199.016C199.348 60.2344 199.813 59.8275 200.412 59.541C201.011 59.248 201.678 59.1016 202.414 59.1016C203.703 59.1016 204.673 59.4141 205.324 60.0391C205.975 60.6576 206.301 61.6504 206.301 63.0176V70H204.68ZM218.4 59.2969V60.3223L216.418 60.5566C216.6 60.7845 216.763 61.084 216.906 61.4551C217.049 61.8197 217.121 62.2331 217.121 62.6953C217.121 63.7435 216.763 64.5801 216.047 65.2051C215.331 65.8301 214.348 66.1426 213.098 66.1426C212.779 66.1426 212.479 66.1165 212.199 66.0645C211.509 66.429 211.164 66.888 211.164 67.4414C211.164 67.7344 211.285 67.9525 211.525 68.0957C211.766 68.2324 212.18 68.3008 212.766 68.3008H214.66C215.819 68.3008 216.708 68.5449 217.326 69.0332C217.951 69.5215 218.264 70.2311 218.264 71.1621C218.264 72.347 217.788 73.2487 216.838 73.8672C215.887 74.4922 214.501 74.8047 212.678 74.8047C211.278 74.8047 210.197 74.5443 209.436 74.0234C208.68 73.5026 208.303 72.7669 208.303 71.8164C208.303 71.1654 208.511 70.6022 208.928 70.127C209.344 69.6517 209.93 69.3294 210.686 69.1602C210.412 69.0365 210.181 68.8444 209.992 68.584C209.81 68.3236 209.719 68.0208 209.719 67.6758C209.719 67.2852 209.823 66.9434 210.031 66.6504C210.24 66.3574 210.568 66.0742 211.018 65.8008C210.464 65.5729 210.012 65.1855 209.66 64.6387C209.315 64.0918 209.143 63.4668 209.143 62.7637C209.143 61.5918 209.494 60.6901 210.197 60.0586C210.9 59.4206 211.896 59.1016 213.186 59.1016C213.745 59.1016 214.25 59.1667 214.699 59.2969H218.4ZM209.865 71.7969C209.865 72.3763 210.109 72.8158 210.598 73.1152C211.086 73.4147 211.786 73.5645 212.697 73.5645C214.058 73.5645 215.064 73.3594 215.715 72.9492C216.372 72.5456 216.701 71.9954 216.701 71.2988C216.701 70.7194 216.522 70.3158 216.164 70.0879C215.806 69.8665 215.132 69.7559 214.143 69.7559H212.199C211.464 69.7559 210.891 69.9316 210.48 70.2832C210.07 70.6348 209.865 71.1393 209.865 71.7969ZM210.744 62.7246C210.744 63.4733 210.956 64.0397 211.379 64.4238C211.802 64.8079 212.391 65 213.146 65C214.729 65 215.52 64.2318 215.52 62.6953C215.52 61.0872 214.719 60.2832 213.117 60.2832C212.355 60.2832 211.77 60.4883 211.359 60.8984C210.949 61.3086 210.744 61.9173 210.744 62.7246ZM230.07 70.1953C228.521 70.1953 227.32 69.7201 226.467 68.7695C225.62 67.8125 225.197 66.4616 225.197 64.7168C225.197 62.9264 225.627 61.543 226.486 60.5664C227.352 59.5898 228.583 59.1016 230.178 59.1016C230.692 59.1016 231.206 59.1569 231.721 59.2676C232.235 59.3783 232.639 59.5085 232.932 59.6582L232.434 61.0352C232.076 60.8919 231.685 60.7747 231.262 60.6836C230.839 60.5859 230.464 60.5371 230.139 60.5371C227.964 60.5371 226.877 61.9238 226.877 64.6973C226.877 66.0124 227.141 67.0215 227.668 67.7246C228.202 68.4277 228.99 68.7793 230.031 68.7793C230.923 68.7793 231.838 68.5872 232.775 68.2031V69.6387C232.059 70.0098 231.158 70.1953 230.07 70.1953ZM244.562 64.6387C244.562 66.3835 244.123 67.7474 243.244 68.7305C242.365 69.707 241.151 70.1953 239.602 70.1953C238.645 70.1953 237.795 69.9707 237.053 69.5215C236.311 69.0723 235.738 68.4277 235.334 67.5879C234.93 66.748 234.729 65.765 234.729 64.6387C234.729 62.8939 235.165 61.5365 236.037 60.5664C236.91 59.5898 238.12 59.1016 239.67 59.1016C241.167 59.1016 242.355 59.5996 243.234 60.5957C244.12 61.5918 244.562 62.9395 244.562 64.6387ZM236.408 64.6387C236.408 66.0059 236.682 67.0475 237.229 67.7637C237.775 68.4798 238.579 68.8379 239.641 68.8379C240.702 68.8379 241.506 68.4831 242.053 67.7734C242.606 67.0573 242.883 66.0124 242.883 64.6387C242.883 63.278 242.606 62.2461 242.053 61.543C241.506 60.8333 240.695 60.4785 239.621 60.4785C238.56 60.4785 237.759 60.8268 237.219 61.5234C236.678 62.2201 236.408 63.2585 236.408 64.6387ZM261.057 70V63.0371C261.057 62.1842 260.874 61.5462 260.51 61.123C260.145 60.6934 259.579 60.4785 258.811 60.4785C257.801 60.4785 257.056 60.7682 256.574 61.3477C256.092 61.9271 255.852 62.819 255.852 64.0234V70H254.23V63.0371C254.23 62.1842 254.048 61.5462 253.684 61.123C253.319 60.6934 252.749 60.4785 251.975 60.4785C250.959 60.4785 250.214 60.7845 249.738 61.3965C249.27 62.002 249.035 62.998 249.035 64.3848V70H247.414V59.2969H248.732L248.996 60.7617H249.074C249.38 60.2409 249.81 59.834 250.363 59.541C250.923 59.248 251.548 59.1016 252.238 59.1016C253.911 59.1016 255.005 59.707 255.52 60.918H255.598C255.917 60.3581 256.379 59.9154 256.984 59.5898C257.59 59.2643 258.28 59.1016 259.055 59.1016C260.266 59.1016 261.171 59.4141 261.77 60.0391C262.375 60.6576 262.678 61.6504 262.678 63.0176V70H261.057ZM271.008 70.1953C270.311 70.1953 269.673 70.0684 269.094 69.8145C268.521 69.554 268.039 69.1569 267.648 68.623H267.531C267.609 69.248 267.648 69.8405 267.648 70.4004V74.8047H266.027V59.2969H267.346L267.57 60.7617H267.648C268.065 60.1758 268.55 59.7526 269.104 59.4922C269.657 59.2318 270.292 59.1016 271.008 59.1016C272.427 59.1016 273.521 59.5866 274.289 60.5566C275.064 61.5267 275.451 62.8874 275.451 64.6387C275.451 66.3965 275.057 67.7637 274.27 68.7402C273.488 69.7103 272.401 70.1953 271.008 70.1953ZM270.773 60.4785C269.68 60.4785 268.889 60.7812 268.4 61.3867C267.912 61.9922 267.661 62.9557 267.648 64.2773V64.6387C267.648 66.1426 267.899 67.2201 268.4 67.8711C268.902 68.5156 269.706 68.8379 270.812 68.8379C271.737 68.8379 272.46 68.4635 272.98 67.7148C273.508 66.9661 273.771 65.9342 273.771 64.6191C273.771 63.2845 273.508 62.2624 272.98 61.5527C272.46 60.8366 271.724 60.4785 270.773 60.4785ZM284.875 70L284.553 68.4766H284.475C283.941 69.1471 283.407 69.6029 282.873 69.8438C282.346 70.0781 281.685 70.1953 280.891 70.1953C279.829 70.1953 278.996 69.9219 278.391 69.375C277.792 68.8281 277.492 68.0501 277.492 67.041C277.492 64.8796 279.221 63.7467 282.678 63.6426L284.494 63.584V62.9199C284.494 62.0801 284.312 61.4616 283.947 61.0645C283.589 60.6608 283.013 60.459 282.219 60.459C281.327 60.459 280.318 60.7324 279.191 61.2793L278.693 60.0391C279.221 59.7526 279.797 59.528 280.422 59.3652C281.053 59.2025 281.685 59.1211 282.316 59.1211C283.592 59.1211 284.536 59.4043 285.148 59.9707C285.767 60.5371 286.076 61.4453 286.076 62.6953V70H284.875ZM281.213 68.8574C282.222 68.8574 283.013 68.5807 283.586 68.0273C284.165 67.474 284.455 66.6992 284.455 65.7031V64.7363L282.834 64.8047C281.545 64.8503 280.614 65.0521 280.041 65.4102C279.475 65.7617 279.191 66.3118 279.191 67.0605C279.191 67.6465 279.367 68.0924 279.719 68.3984C280.077 68.7044 280.575 68.8574 281.213 68.8574ZM296.75 70V63.0762C296.75 62.2038 296.551 61.5527 296.154 61.123C295.757 60.6934 295.135 60.4785 294.289 60.4785C293.169 60.4785 292.349 60.7812 291.828 61.3867C291.307 61.9922 291.047 62.9915 291.047 64.3848V70H289.426V59.2969H290.744L291.008 60.7617H291.086C291.418 60.2344 291.883 59.8275 292.482 59.541C293.081 59.248 293.749 59.1016 294.484 59.1016C295.773 59.1016 296.743 59.4141 297.395 60.0391C298.046 60.6576 298.371 61.6504 298.371 63.0176V70H296.75ZM300.012 59.2969H301.75L304.094 65.4004C304.608 66.7936 304.927 67.7995 305.051 68.418H305.129C305.214 68.0859 305.389 67.5195 305.656 66.7188C305.93 65.9115 306.815 63.4375 308.312 59.2969H310.051L305.451 71.4844C304.995 72.6888 304.462 73.5417 303.85 74.043C303.244 74.5508 302.499 74.8047 301.613 74.8047C301.118 74.8047 300.63 74.7493 300.148 74.6387V73.3398C300.507 73.418 300.907 73.457 301.35 73.457C302.463 73.457 303.257 72.832 303.732 71.582L304.328 70.0586L300.012 59.2969Z" fill="#646161"/>
</svg>
