<svg width="22" height="23" viewBox="0 0 22 23" fill="none" xmlns="http://www.w3.org/2000/svg">
<path fill-rule="evenodd" clip-rule="evenodd" d="M10.7143 0.642857C8 0.642857 7.57143 0.642857 6.42857 0.714286C5.28571 0.785714 4.42857 0.928572 3.78571 1.21429C3.07143 1.5 2.42857 1.85714 1.85714 2.5C1.21429 3.14286 0.857143 3.71429 0.571429 4.42857C0.285714 5.14286 0.142857 5.92857 0.0714282 7.07143C-4.09782e-07 8.21429 0 8.64286 0 11.5714C0 14.5714 -4.09782e-07 14.9286 0.0714282 16.0714C0.142857 17.2143 0.285714 18.0714 0.571429 18.7143C0.857143 19.4286 1.21429 20.0714 1.85714 20.6429C2.5 21.2857 3.07143 21.6429 3.78571 21.9286C4.5 22.2143 5.28571 22.3571 6.42857 22.4286C7.57143 22.5 8 22.5 10.9286 22.5C13.9286 22.5 14.2857 22.5 15.4286 22.4286C16.5714 22.3571 17.4286 22.2143 18.0714 21.9286C18.7857 21.6429 19.4286 21.2857 20 20.6429C20.6429 20 21 19.4286 21.2857 18.7143C21.5714 18 21.7143 17.2143 21.7857 16.0714C21.8571 14.9286 21.8571 14.5714 21.8571 11.7857V11.2143C21.8571 8.5 21.8571 8.07143 21.7857 6.92857C21.7143 5.78572 21.5714 4.92857 21.2857 4.28571C21 3.57143 20.6429 2.92857 20 2.35714C19.3571 1.71429 18.7857 1.35714 18.0714 1.07143C17.3571 0.785714 16.5714 0.642857 15.4286 0.571429C14.2857 0.5 13.9286 0.5 11.1429 0.5H10.7143V0.642857ZM18.2143 5.71429C18.2143 6.42857 17.6429 7 16.9286 7C16.2143 7 15.6429 6.42857 15.6429 5.71429C15.6429 5 16.2143 4.42857 16.9286 4.42857C17.5714 4.42857 18.2143 5 18.2143 5.71429ZM11 15.2143C9 15.2143 7.35714 13.5714 7.35714 11.5714C7.35714 9.57143 9 7.92857 11 7.92857C13 7.92857 14.6429 9.57143 14.6429 11.5714C14.6429 13.5714 13 15.2143 11 15.2143ZM11 5.92857C14.1429 5.92857 16.6429 8.42857 16.6429 11.5714C16.6429 14.7143 14.1429 17.2143 11 17.2143C7.85714 17.2143 5.35714 14.7143 5.35714 11.5714C5.35714 8.42857 7.92857 5.92857 11 5.92857ZM11 2.57143C13.9286 2.57143 14.2857 2.57143 15.4286 2.64286C16.5 2.71429 17.0714 2.85714 17.5 3C18 3.21429 18.3571 3.42857 18.7857 3.78571C19.1429 4.14286 19.4286 4.5 19.5714 5.07143C19.7143 5.42857 19.9286 6.07143 19.9286 7.14286C20 8.28571 20 8.64286 20 11.5714C20 14.5 20 14.8571 19.9286 16C19.8571 17.0714 19.7143 17.6429 19.5714 18.0714C19.3571 18.5714 19.1429 18.9286 18.7857 19.3571C18.4286 19.7143 18.0714 20 17.5 20.1429C17.1429 20.2857 16.5 20.5 15.4286 20.5C14.2857 20.5714 13.9286 20.5714 11 20.5714C8.07143 20.5714 7.71429 20.5714 6.57143 20.5C5.5 20.4286 4.92857 20.2857 4.5 20.1429C4 19.9286 3.64286 19.7143 3.21429 19.3571C2.85714 19 2.57143 18.6429 2.42857 18.0714C2.28571 17.7143 2.07143 17.0714 2.07143 16C2 14.8571 2 14.5 2 11.5714C2 8.64286 2 8.28571 2.07143 7.14286C2.14286 6.07143 2.28571 5.5 2.42857 5.07143C2.64286 4.57143 2.85714 4.21429 3.21429 3.78571C3.57143 3.42857 3.92857 3.14286 4.5 3C4.85714 2.85714 5.5 2.64286 6.57143 2.64286C7.71429 2.57143 8.07143 2.57143 11 2.57143Z" fill="#646161"/>
</svg>
