<svg width="357" height="81" viewBox="0 0 357 81" fill="none" xmlns="http://www.w3.org/2000/svg">
<g filter="url(#filter0_d)">
<g opacity="0.300003">
<g opacity="0.300003">
<path opacity="0.300003" d="M8.72363 10.9084L24.0639 19.5923H63.0447V10.9084H8.72363Z" fill="black"/>
</g>
<g opacity="0.300003">
<path opacity="0.300003" d="M4.01118 68.8009C4.01118 68.8014 4.01061 68.8026 4.01061 68.8031L4.00736 68.8023C6.7943 59.3216 12.3919 51.0088 19.8586 44.7874L33.9988 68.8009H42.1801L25.5923 40.6525C31.1641 37.1982 37.4727 34.7829 44.2348 33.6846L4 10.9083V68.8009H4.01118ZM27.6164 32.2989C21.3847 35.2776 15.7896 39.3378 11.0853 44.2306V22.941L27.6165 32.299" fill="black"/>
</g>
<g opacity="0.300003">
<path opacity="0.300003" d="M51.8765 35.3368L63.0443 35.3322V44.0161H30.3127C30.3127 44.0161 28.8084 41.4614 28.8083 41.4614C35.6323 37.6619 43.4957 35.4497 51.8765 35.3368Z" fill="black"/>
</g>
<g opacity="0.300003">
<path opacity="0.300003" d="M39.4563 60.117L44.5836 68.8009H62.7071V60.117H39.4563Z" fill="black"/>
</g>
</g>
<path d="M9.67896 9.97157L25.0192 18.6555H64V9.97157H9.67896Z" fill="#F78F01"/>
<path d="M4.96674 67.8641C4.96674 67.8646 4.96617 67.8659 4.96617 67.8663L4.96292 67.8655C7.74987 58.3849 13.3474 50.0721 20.8142 43.8507L34.9543 67.8641H43.1356L26.5478 39.7157C32.1196 36.2614 38.4282 33.8461 45.1903 32.7478L4.95557 9.97152V67.8641H4.96674ZM28.572 31.3622C22.3403 34.3408 16.7452 38.4011 12.0408 43.2938V22.0043L28.5721 31.3623" fill="#FBBF13"/>
<path d="M52.8321 34.3999L64 34.3953V43.0792H31.2683C31.2683 43.0792 29.764 40.5246 29.7639 40.5246C36.5879 36.7251 44.4513 34.5129 52.8321 34.3999Z" fill="#F78F01"/>
<path d="M40.4119 59.1802L45.5392 67.8641H63.6626V59.1802H40.4119Z" fill="#F78F01"/>
<path d="M76.1792 12.9821H81.8173C84.6537 12.9821 86.7291 13.5701 88.0435 14.7462C89.381 15.8992 90.0498 17.7901 90.0498 20.4189C90.0498 24.0163 88.8968 26.1955 86.5908 26.9565L90.5686 41H86.7983L83.1318 27.8558H80.0878V41H76.1792V12.9821ZM81.5752 25.054C83.2586 25.054 84.4577 24.7196 85.1726 24.0509C85.9105 23.3822 86.2795 22.1715 86.2795 20.4189C86.2795 19.2659 86.1526 18.3666 85.899 17.7209C85.6453 17.0522 85.1956 16.5679 84.55 16.2681C83.9043 15.9453 82.9934 15.7839 81.8173 15.7839H80.0878V25.054H81.5752ZM99.3391 41.2767C97.794 41.2767 96.5949 40.9885 95.7417 40.412C94.8885 39.8124 94.2889 38.9361 93.943 37.7831C93.5971 36.6301 93.4242 35.1312 93.4242 33.2864V28.7205C93.4242 25.9533 93.8508 23.9356 94.704 22.6673C95.5803 21.3759 97.1253 20.7303 99.3391 20.7303C100.953 20.7303 102.164 21.0646 102.971 21.7334C103.801 22.4021 104.343 23.3476 104.597 24.5697C104.873 25.7689 105.012 27.3946 105.012 29.4469V31.0727H97.1253V35.0851C97.1253 36.3073 97.2983 37.1951 97.6442 37.7485C98.0131 38.2789 98.5896 38.5441 99.3737 38.5441C100.158 38.5441 100.688 38.2789 100.965 37.7485C101.242 37.1951 101.38 36.3649 101.38 35.2581V34.0474H104.977V34.8084C104.977 36.9068 104.528 38.5095 103.628 39.6164C102.729 40.7233 101.299 41.2767 99.3391 41.2767ZM101.38 29.0664V27.2678C101.38 25.9072 101.242 24.9387 100.965 24.3622C100.711 23.7626 100.158 23.4629 99.3045 23.4629C98.7049 23.4629 98.2437 23.6012 97.9209 23.8779C97.6211 24.1547 97.4136 24.6159 97.2983 25.2615C97.183 25.8842 97.1253 26.795 97.1253 27.9942V29.0664H101.38ZM108.364 21.007H111.788V22.9094C112.457 22.1715 113.183 21.6181 113.967 21.2491C114.774 20.8571 115.616 20.6611 116.492 20.6611C118.199 20.6611 119.282 21.5028 119.744 23.1861C121.127 21.5028 122.788 20.6611 124.725 20.6611C125.762 20.6611 126.604 21.0416 127.25 21.8025C127.918 22.5635 128.253 23.7281 128.253 25.2961V41H124.863V25.5383C124.863 24.6159 124.713 23.9817 124.413 23.6358C124.114 23.2669 123.687 23.0824 123.133 23.0824C122.626 23.0824 122.096 23.2323 121.542 23.5321C120.989 23.8088 120.482 24.2008 120.02 24.7081V25.2961V41H116.631V25.5383C116.631 24.6159 116.481 23.9817 116.181 23.6358C115.881 23.2669 115.454 23.0824 114.901 23.0824C114.417 23.0824 113.898 23.2323 113.345 23.5321C112.791 23.8088 112.272 24.2008 111.788 24.7081V41H108.364V21.007ZM137.374 41.2767C135.252 41.2767 133.742 40.6541 132.842 39.4089C131.966 38.1406 131.528 36.3073 131.528 33.909V28.0979C131.528 25.6997 131.966 23.8779 132.842 22.6327C133.742 21.3644 135.252 20.7303 137.374 20.7303C139.472 20.7303 140.96 21.3644 141.836 22.6327C142.735 23.8779 143.185 25.6997 143.185 28.0979V33.909C143.185 36.3073 142.735 38.1406 141.836 39.4089C140.96 40.6541 139.472 41.2767 137.374 41.2767ZM137.374 38.5441C138.042 38.5441 138.527 38.3481 138.827 37.9561C139.126 37.5641 139.311 37.0798 139.38 36.5033C139.449 35.9268 139.484 35.1428 139.484 34.1512V27.8904C139.484 26.8988 139.449 26.1148 139.38 25.5383C139.311 24.9387 139.126 24.4429 138.827 24.0509C138.527 23.6589 138.042 23.4629 137.374 23.4629C136.705 23.4629 136.209 23.6589 135.886 24.0509C135.587 24.4429 135.402 24.9387 135.333 25.5383C135.264 26.1148 135.229 26.8988 135.229 27.8904V34.1512C135.229 35.1428 135.264 35.9268 135.333 36.5033C135.402 37.0798 135.587 37.5641 135.886 37.9561C136.209 38.3481 136.705 38.5441 137.374 38.5441ZM151.895 41.2767C149.012 41.2767 147.571 39.6856 147.571 36.5033V23.4629H145.461V21.007H147.571V15.1613H151.272V21.007H154.489V23.4629H151.272V36.2612C151.272 37.0683 151.399 37.6332 151.653 37.9561C151.906 38.2789 152.391 38.4403 153.105 38.4403C153.567 38.4403 154.016 38.4057 154.454 38.3366V41.0692C153.532 41.2075 152.679 41.2767 151.895 41.2767ZM157.52 12.9821H168.381V15.8877H161.428V25.1578H167.067V27.925H161.428V38.1982H168.45V41H157.52V12.9821ZM171.294 21.007H174.719V22.9094C175.388 22.1715 176.114 21.6181 176.898 21.2491C177.705 20.8571 178.547 20.6611 179.423 20.6611C181.129 20.6611 182.213 21.5028 182.674 23.1861C184.058 21.5028 185.718 20.6611 187.655 20.6611C188.693 20.6611 189.535 21.0416 190.181 21.8025C190.849 22.5635 191.184 23.7281 191.184 25.2961V41H187.794V25.5383C187.794 24.6159 187.644 23.9817 187.344 23.6358C187.044 23.2669 186.618 23.0824 186.064 23.0824C185.557 23.0824 185.027 23.2323 184.473 23.5321C183.92 23.8088 183.412 24.2008 182.951 24.7081V25.2961V41H179.561V25.5383C179.561 24.6159 179.411 23.9817 179.112 23.6358C178.812 23.2669 178.385 23.0824 177.832 23.0824C177.348 23.0824 176.829 23.2323 176.275 23.5321C175.722 23.8088 175.203 24.2008 174.719 24.7081V41H171.294V21.007ZM194.805 21.007H198.506V22.5981C199.59 21.3529 200.858 20.7303 202.311 20.7303C204.133 20.7303 205.343 21.5143 205.943 23.0824C206.565 24.6274 206.877 26.3454 206.877 28.2363V33.0789C206.877 35.5232 206.496 37.5064 205.735 39.0284C204.997 40.5273 203.717 41.2767 201.896 41.2767C200.72 41.2767 199.59 40.6887 198.506 39.5126V47.5721H194.805V21.007ZM201.169 38.3712C202.023 38.3712 202.564 37.9445 202.795 37.0913C203.049 36.215 203.176 34.8776 203.176 33.0789V28.2363C203.176 26.7604 203.037 25.6305 202.76 24.8465C202.484 24.0394 201.907 23.6358 201.031 23.6358C200.178 23.6358 199.336 23.9817 198.506 24.6735V37.4718C199.313 38.0714 200.201 38.3712 201.169 38.3712ZM210.588 12.9821H214.289V41H210.588V12.9821ZM223.646 41.2767C221.525 41.2767 220.014 40.6541 219.115 39.4089C218.238 38.1406 217.8 36.3073 217.8 33.909V28.0979C217.8 25.6997 218.238 23.8779 219.115 22.6327C220.014 21.3644 221.525 20.7303 223.646 20.7303C225.745 20.7303 227.232 21.3644 228.108 22.6327C229.008 23.8779 229.457 25.6997 229.457 28.0979V33.909C229.457 36.3073 229.008 38.1406 228.108 39.4089C227.232 40.6541 225.745 41.2767 223.646 41.2767ZM223.646 38.5441C224.315 38.5441 224.799 38.3481 225.099 37.9561C225.399 37.5641 225.583 37.0798 225.652 36.5033C225.721 35.9268 225.756 35.1428 225.756 34.1512V27.8904C225.756 26.8988 225.721 26.1148 225.652 25.5383C225.583 24.9387 225.399 24.4429 225.099 24.0509C224.799 23.6589 224.315 23.4629 223.646 23.4629C222.977 23.4629 222.482 23.6589 222.159 24.0509C221.859 24.4429 221.674 24.9387 221.605 25.5383C221.536 26.1148 221.501 26.8988 221.501 27.8904V34.1512C221.501 35.1428 221.536 35.9268 221.605 36.5033C221.674 37.0798 221.859 37.5641 222.159 37.9561C222.482 38.3481 222.977 38.5441 223.646 38.5441ZM232.529 43.1792C233.913 43.1792 234.858 43.0754 235.365 42.8679C235.896 42.6603 236.161 42.2683 236.161 41.6918C236.161 41.4151 235.907 40.1929 235.4 38.0253L231.387 21.007H235.123L237.821 35.9499L240.415 21.007H244.151L239.378 42.1069C239.055 43.5135 238.375 44.5167 237.337 45.1162C236.299 45.7158 234.846 46.0156 232.979 46.0156H232.529V43.1792ZM251.92 41.2767C250.375 41.2767 249.176 40.9885 248.323 40.412C247.47 39.8124 246.87 38.9361 246.524 37.7831C246.178 36.6301 246.005 35.1312 246.005 33.2864V28.7205C246.005 25.9533 246.432 23.9356 247.285 22.6673C248.161 21.3759 249.706 20.7303 251.92 20.7303C253.534 20.7303 254.745 21.0646 255.552 21.7334C256.382 22.4021 256.924 23.3476 257.178 24.5697C257.455 25.7689 257.593 27.3946 257.593 29.4469V31.0727H249.706V35.0851C249.706 36.3073 249.879 37.1951 250.225 37.7485C250.594 38.2789 251.171 38.5441 251.955 38.5441C252.739 38.5441 253.269 38.2789 253.546 37.7485C253.823 37.1951 253.961 36.3649 253.961 35.2581V34.0474H257.558V34.8084C257.558 36.9068 257.109 38.5095 256.209 39.6164C255.31 40.7233 253.88 41.2767 251.92 41.2767ZM253.961 29.0664V27.2678C253.961 25.9072 253.823 24.9387 253.546 24.3622C253.292 23.7626 252.739 23.4629 251.886 23.4629C251.286 23.4629 250.825 23.6012 250.502 23.8779C250.202 24.1547 249.995 24.6159 249.879 25.2615C249.764 25.8842 249.706 26.795 249.706 27.9942V29.0664H253.961ZM266.479 41.2767C264.934 41.2767 263.735 40.9885 262.882 40.412C262.028 39.8124 261.429 38.9361 261.083 37.7831C260.737 36.6301 260.564 35.1312 260.564 33.2864V28.7205C260.564 25.9533 260.991 23.9356 261.844 22.6673C262.72 21.3759 264.265 20.7303 266.479 20.7303C268.093 20.7303 269.304 21.0646 270.111 21.7334C270.941 22.4021 271.483 23.3476 271.737 24.5697C272.013 25.7689 272.152 27.3946 272.152 29.4469V31.0727H264.265V35.0851C264.265 36.3073 264.438 37.1951 264.784 37.7485C265.153 38.2789 265.73 38.5441 266.514 38.5441C267.298 38.5441 267.828 38.2789 268.105 37.7485C268.381 37.1951 268.52 36.3649 268.52 35.2581V34.0474H272.117V34.8084C272.117 36.9068 271.668 38.5095 270.768 39.6164C269.869 40.7233 268.439 41.2767 266.479 41.2767ZM268.52 29.0664V27.2678C268.52 25.9072 268.381 24.9387 268.105 24.3622C267.851 23.7626 267.298 23.4629 266.444 23.4629C265.845 23.4629 265.384 23.6012 265.061 23.8779C264.761 24.1547 264.554 24.6159 264.438 25.2615C264.323 25.8842 264.265 26.795 264.265 27.9942V29.0664H268.52ZM280.139 41.2767C278.524 41.2767 277.21 40.7694 276.195 39.7548C275.204 38.7401 274.639 37.3796 274.5 35.6731L277.579 34.7392C277.763 36.0306 278.075 36.9876 278.513 37.6102C278.974 38.2328 279.62 38.5441 280.45 38.5441C281.096 38.5441 281.591 38.3596 281.937 37.9907C282.306 37.5986 282.491 37.0798 282.491 36.4341C282.491 35.8576 282.364 35.3388 282.11 34.8776C281.857 34.4164 281.441 33.9436 280.865 33.4594L277.441 30.5192C276.657 29.8505 276.045 29.1472 275.607 28.4092C275.192 27.6483 274.985 26.7259 274.985 25.642C274.985 24.097 275.446 22.8979 276.368 22.0447C277.291 21.1684 278.547 20.7303 280.139 20.7303C281.661 20.7303 282.848 21.226 283.701 22.2176C284.578 23.1861 285.085 24.4429 285.223 25.9879L282.733 26.9219C282.571 25.7919 282.306 24.9387 281.937 24.3622C281.568 23.7626 281.015 23.4629 280.277 23.4629C279.677 23.4629 279.193 23.6589 278.824 24.0509C278.478 24.4429 278.305 24.9272 278.305 25.5037C278.305 26.2416 278.64 26.9103 279.308 27.5099L282.837 30.7614C283.736 31.5915 284.428 32.4101 284.912 33.2172C285.419 34.0243 285.673 35.0044 285.673 36.1574C285.673 37.8177 285.177 39.086 284.186 39.9623C283.194 40.8386 281.845 41.2767 280.139 41.2767Z" fill="#004143"/>
<path d="M79.7217 67.0001H78.2275V55.4776H74.1582V54.1505H83.791V55.4776H79.7217V67.0001ZM92.1055 67.0001V60.7686C92.1055 59.9835 91.9268 59.3975 91.5693 59.0108C91.2119 58.6241 90.6523 58.4307 89.8906 58.4307C88.877 58.4307 88.1357 58.7061 87.667 59.2569C87.2041 59.8077 86.9727 60.71 86.9727 61.9639V67.0001H85.5137V53.3243H86.9727V57.4639C86.9727 57.962 86.9492 58.3751 86.9023 58.7032H86.9902C87.2773 58.2403 87.6846 57.877 88.2119 57.6133C88.7451 57.3438 89.3516 57.209 90.0312 57.209C91.209 57.209 92.0908 57.4903 92.6768 58.0528C93.2686 58.6094 93.5645 59.4971 93.5645 60.7159V67.0001H92.1055ZM100.64 67.1758C99.2158 67.1758 98.0908 66.7422 97.2646 65.8751C96.4443 65.0079 96.0342 63.8038 96.0342 62.2628C96.0342 60.71 96.415 59.4766 97.1768 58.5626C97.9443 57.6485 98.9727 57.1915 100.262 57.1915C101.469 57.1915 102.424 57.5899 103.127 58.3868C103.83 59.1778 104.182 60.2237 104.182 61.5245V62.4473H97.5459C97.5752 63.5782 97.8594 64.4366 98.3984 65.0225C98.9434 65.6085 99.708 65.9014 100.692 65.9014C101.729 65.9014 102.755 65.6846 103.769 65.251V66.5518C103.253 66.7745 102.764 66.9327 102.301 67.0264C101.844 67.126 101.29 67.1758 100.64 67.1758ZM100.244 58.4131C99.4707 58.4131 98.8525 58.6651 98.3896 59.169C97.9326 59.6729 97.6631 60.3702 97.5811 61.2608H102.617C102.617 60.3409 102.412 59.6378 102.002 59.1514C101.592 58.6592 101.006 58.4131 100.244 58.4131ZM119.668 62.1749C119.668 63.7452 119.272 64.9727 118.481 65.8575C117.69 66.7364 116.598 67.1758 115.203 67.1758C114.342 67.1758 113.577 66.9737 112.909 66.5694C112.241 66.1651 111.726 65.585 111.362 64.8292C110.999 64.0733 110.817 63.1885 110.817 62.1749C110.817 60.6046 111.21 59.3829 111.995 58.5098C112.78 57.6309 113.87 57.1915 115.265 57.1915C116.612 57.1915 117.682 57.6397 118.473 58.5362C119.27 59.4327 119.668 60.6456 119.668 62.1749ZM112.329 62.1749C112.329 63.4053 112.575 64.3428 113.067 64.9874C113.56 65.6319 114.283 65.9542 115.238 65.9542C116.193 65.9542 116.917 65.6348 117.409 64.9962C117.907 64.3516 118.156 63.4112 118.156 62.1749C118.156 60.9503 117.907 60.0215 117.409 59.3887C116.917 58.7501 116.188 58.4307 115.221 58.4307C114.266 58.4307 113.545 58.7442 113.059 59.3712C112.572 59.9981 112.329 60.9327 112.329 62.1749ZM123.605 57.3672V63.6163C123.605 64.4014 123.784 64.9874 124.142 65.3741C124.499 65.7608 125.059 65.9542 125.82 65.9542C126.828 65.9542 127.563 65.6788 128.026 65.128C128.495 64.5772 128.729 63.6778 128.729 62.4297V57.3672H130.188V67.0001H128.984L128.773 65.7081H128.694C128.396 66.1827 127.979 66.546 127.446 66.7979C126.919 67.0499 126.315 67.1758 125.636 67.1758C124.464 67.1758 123.585 66.8975 122.999 66.3409C122.419 65.7842 122.129 64.8936 122.129 63.669V57.3672H123.605ZM136.402 65.9717C136.66 65.9717 136.909 65.9542 137.149 65.919C137.39 65.878 137.58 65.837 137.721 65.796V66.9122C137.562 66.9883 137.328 67.0499 137.018 67.0967C136.713 67.1495 136.438 67.1758 136.191 67.1758C134.328 67.1758 133.396 66.1944 133.396 64.2315V58.501H132.017V57.7979L133.396 57.1915L134.012 55.1348H134.855V57.3672H137.65V58.501H134.855V64.17C134.855 64.7501 134.993 65.1954 135.269 65.5059C135.544 65.8165 135.922 65.9717 136.402 65.9717ZM145.868 64.3721C145.868 65.2686 145.534 65.96 144.866 66.4464C144.198 66.9327 143.261 67.1758 142.054 67.1758C140.776 67.1758 139.78 66.9737 139.065 66.5694V65.2159C139.528 65.4503 140.023 65.6348 140.551 65.7696C141.084 65.9044 141.597 65.9717 142.089 65.9717C142.851 65.9717 143.437 65.8516 143.847 65.6114C144.257 65.3653 144.462 64.9932 144.462 64.4952C144.462 64.1202 144.298 63.8008 143.97 63.5372C143.647 63.2676 143.015 62.9512 142.071 62.588C141.175 62.254 140.536 61.9639 140.155 61.7178C139.78 61.4659 139.499 61.1817 139.312 60.8653C139.13 60.5489 139.039 60.171 139.039 59.7315C139.039 58.9464 139.358 58.3282 139.997 57.877C140.636 57.42 141.512 57.1915 142.625 57.1915C143.662 57.1915 144.676 57.4024 145.666 57.8243L145.147 59.0108C144.181 58.6124 143.305 58.4131 142.52 58.4131C141.828 58.4131 141.307 58.5215 140.955 58.7383C140.604 58.9551 140.428 59.254 140.428 59.6348C140.428 59.8926 140.492 60.1124 140.621 60.294C140.756 60.4756 140.97 60.6485 141.263 60.8126C141.556 60.9766 142.118 61.2139 142.95 61.5245C144.093 61.9405 144.863 62.3594 145.262 62.7813C145.666 63.2032 145.868 63.7335 145.868 64.3721ZM151.361 65.9717C151.619 65.9717 151.868 65.9542 152.108 65.919C152.349 65.878 152.539 65.837 152.68 65.796V66.9122C152.521 66.9883 152.287 67.0499 151.977 67.0967C151.672 67.1495 151.396 67.1758 151.15 67.1758C149.287 67.1758 148.355 66.1944 148.355 64.2315V58.501H146.976V57.7979L148.355 57.1915L148.971 55.1348H149.814V57.3672H152.609V58.501H149.814V64.17C149.814 64.7501 149.952 65.1954 150.228 65.5059C150.503 65.8165 150.881 65.9717 151.361 65.9717ZM160.537 67.0001L160.247 65.629H160.177C159.696 66.2325 159.216 66.6426 158.735 66.8594C158.261 67.0704 157.666 67.1758 156.951 67.1758C155.996 67.1758 155.246 66.9297 154.701 66.4376C154.162 65.9454 153.893 65.2452 153.893 64.337C153.893 62.3917 155.448 61.3721 158.56 61.2784L160.194 61.2256V60.628C160.194 59.8721 160.03 59.3155 159.702 58.9581C159.38 58.5948 158.861 58.4131 158.146 58.4131C157.344 58.4131 156.436 58.6592 155.422 59.1514L154.974 58.0352C155.448 57.7774 155.967 57.5753 156.529 57.4288C157.098 57.2823 157.666 57.209 158.234 57.209C159.383 57.209 160.232 57.4639 160.783 57.9737C161.34 58.4835 161.618 59.3008 161.618 60.4258V67.0001H160.537ZM157.241 65.9717C158.149 65.9717 158.861 65.7227 159.377 65.2247C159.898 64.7266 160.159 64.0294 160.159 63.1329V62.2628L158.7 62.3243C157.54 62.3653 156.702 62.5469 156.187 62.8692C155.677 63.1856 155.422 63.6807 155.422 64.3546C155.422 64.8819 155.58 65.2833 155.896 65.5587C156.219 65.834 156.667 65.9717 157.241 65.9717ZM175.021 58.501H172.569V67.0001H171.11V58.501H169.388V57.8419L171.11 57.3145V56.7784C171.11 54.4112 172.145 53.2276 174.213 53.2276C174.723 53.2276 175.32 53.3301 176.006 53.5352L175.628 54.7042C175.065 54.5225 174.585 54.4317 174.187 54.4317C173.636 54.4317 173.229 54.6163 172.965 54.9854C172.701 55.3487 172.569 55.9346 172.569 56.7432V57.3672H175.021V58.501ZM168.975 58.501H166.522V67.0001H165.063V58.501H163.341V57.8419L165.063 57.3145V56.7784C165.063 54.4112 166.098 53.2276 168.166 53.2276C168.676 53.2276 169.273 53.3301 169.959 53.5352L169.581 54.7042C169.019 54.5225 168.538 54.4317 168.14 54.4317C167.589 54.4317 167.182 54.6163 166.918 54.9854C166.654 55.3487 166.522 55.9346 166.522 56.7432V57.3672H168.975V58.501ZM178.3 67.0001H176.841V57.3672H178.3V67.0001ZM176.718 54.7569C176.718 54.4229 176.8 54.1797 176.964 54.0274C177.128 53.8692 177.333 53.7901 177.579 53.7901C177.813 53.7901 178.016 53.8692 178.186 54.0274C178.355 54.1856 178.44 54.4288 178.44 54.7569C178.44 55.085 178.355 55.3311 178.186 55.4952C178.016 55.6534 177.813 55.7325 177.579 55.7325C177.333 55.7325 177.128 55.6534 176.964 55.4952C176.8 55.3311 176.718 55.085 176.718 54.7569ZM188.012 67.0001V60.7686C188.012 59.9835 187.833 59.3975 187.476 59.0108C187.118 58.6241 186.559 58.4307 185.797 58.4307C184.789 58.4307 184.051 58.7032 183.582 59.2481C183.113 59.793 182.879 60.6924 182.879 61.9464V67.0001H181.42V57.3672H182.606L182.844 58.6856H182.914C183.213 58.211 183.632 57.8448 184.171 57.587C184.71 57.3233 185.311 57.1915 185.973 57.1915C187.133 57.1915 188.006 57.4727 188.592 58.0352C189.178 58.5919 189.471 59.4854 189.471 60.7159V67.0001H188.012ZM200.36 57.3672V58.2901L198.576 58.501C198.74 58.7061 198.887 58.9756 199.016 59.3096C199.145 59.6378 199.209 60.0098 199.209 60.4258C199.209 61.3692 198.887 62.1221 198.242 62.6846C197.598 63.2471 196.713 63.5284 195.588 63.5284C195.301 63.5284 195.031 63.5049 194.779 63.4581C194.158 63.7862 193.848 64.1993 193.848 64.6973C193.848 64.961 193.956 65.1573 194.173 65.2862C194.39 65.4092 194.762 65.4708 195.289 65.4708H196.994C198.037 65.4708 198.837 65.6905 199.394 66.1299C199.956 66.5694 200.237 67.2081 200.237 68.046C200.237 69.1124 199.81 69.9239 198.954 70.4805C198.099 71.043 196.851 71.3243 195.21 71.3243C193.95 71.3243 192.978 71.0899 192.292 70.6212C191.612 70.1524 191.272 69.4903 191.272 68.6348C191.272 68.0489 191.46 67.5421 191.835 67.1143C192.21 66.6866 192.737 66.3965 193.417 66.2442C193.171 66.1329 192.963 65.96 192.793 65.7256C192.629 65.4913 192.547 65.2188 192.547 64.9083C192.547 64.5567 192.641 64.2491 192.828 63.9854C193.016 63.7217 193.312 63.4669 193.716 63.2208C193.218 63.0157 192.811 62.6671 192.494 62.1749C192.184 61.6827 192.028 61.1202 192.028 60.4874C192.028 59.4327 192.345 58.6212 192.978 58.0528C193.61 57.4786 194.507 57.1915 195.667 57.1915C196.171 57.1915 196.625 57.2501 197.029 57.3672H200.36ZM192.679 68.6172C192.679 69.1387 192.898 69.5342 193.338 69.8038C193.777 70.0733 194.407 70.2081 195.228 70.2081C196.452 70.2081 197.357 70.0235 197.943 69.6544C198.535 69.2911 198.831 68.796 198.831 68.169C198.831 67.6475 198.67 67.2842 198.348 67.0792C198.025 66.8799 197.419 66.7803 196.528 66.7803H194.779C194.117 66.7803 193.602 66.9385 193.232 67.2549C192.863 67.5714 192.679 68.0255 192.679 68.6172ZM193.47 60.4522C193.47 61.126 193.66 61.6358 194.041 61.9815C194.422 62.3272 194.952 62.5001 195.632 62.5001C197.056 62.5001 197.768 61.8087 197.768 60.4258C197.768 58.9786 197.047 58.2549 195.605 58.2549C194.92 58.2549 194.393 58.4395 194.023 58.8087C193.654 59.1778 193.47 59.7256 193.47 60.4522ZM210.863 67.1758C209.469 67.1758 208.388 66.7481 207.62 65.8926C206.858 65.0313 206.478 63.8155 206.478 62.2452C206.478 60.6339 206.864 59.3887 207.638 58.5098C208.417 57.6309 209.524 57.1915 210.96 57.1915C211.423 57.1915 211.886 57.2413 212.349 57.3409C212.812 57.4405 213.175 57.5577 213.438 57.6924L212.99 58.9317C212.668 58.8028 212.316 58.6973 211.936 58.6153C211.555 58.5274 211.218 58.4835 210.925 58.4835C208.968 58.4835 207.989 59.7315 207.989 62.2276C207.989 63.4112 208.227 64.3194 208.701 64.9522C209.182 65.585 209.891 65.9014 210.828 65.9014C211.631 65.9014 212.454 65.7286 213.298 65.3829V66.6749C212.653 67.0089 211.842 67.1758 210.863 67.1758ZM223.906 62.1749C223.906 63.7452 223.511 64.9727 222.72 65.8575C221.929 66.7364 220.836 67.1758 219.441 67.1758C218.58 67.1758 217.815 66.9737 217.147 66.5694C216.479 66.1651 215.964 65.585 215.601 64.8292C215.237 64.0733 215.056 63.1885 215.056 62.1749C215.056 60.6046 215.448 59.3829 216.233 58.5098C217.019 57.6309 218.108 57.1915 219.503 57.1915C220.851 57.1915 221.92 57.6397 222.711 58.5362C223.508 59.4327 223.906 60.6456 223.906 62.1749ZM216.567 62.1749C216.567 63.4053 216.813 64.3428 217.306 64.9874C217.798 65.6319 218.521 65.9542 219.477 65.9542C220.432 65.9542 221.155 65.6348 221.647 64.9962C222.146 64.3516 222.395 63.4112 222.395 62.1749C222.395 60.9503 222.146 60.0215 221.647 59.3887C221.155 58.7501 220.426 58.4307 219.459 58.4307C218.504 58.4307 217.783 58.7442 217.297 59.3712C216.811 59.9981 216.567 60.9327 216.567 62.1749ZM238.751 67.0001V60.7335C238.751 59.9659 238.587 59.3917 238.259 59.0108C237.931 58.6241 237.421 58.4307 236.729 58.4307C235.821 58.4307 235.15 58.6915 234.717 59.213C234.283 59.7344 234.066 60.5372 234.066 61.6212V67.0001H232.607V60.7335C232.607 59.9659 232.443 59.3917 232.115 59.0108C231.787 58.6241 231.274 58.4307 230.577 58.4307C229.663 58.4307 228.992 58.7061 228.564 59.2569C228.143 59.8018 227.932 60.6983 227.932 61.9464V67.0001H226.473V57.3672H227.659L227.896 58.6856H227.967C228.242 58.2169 228.629 57.8506 229.127 57.587C229.631 57.3233 230.193 57.1915 230.814 57.1915C232.32 57.1915 233.305 57.7364 233.768 58.8262H233.838C234.125 58.3223 234.541 57.9239 235.086 57.6309C235.631 57.338 236.252 57.1915 236.949 57.1915C238.039 57.1915 238.854 57.4727 239.393 58.0352C239.938 58.5919 240.21 59.4854 240.21 60.7159V67.0001H238.751ZM247.707 67.1758C247.08 67.1758 246.506 67.0616 245.984 66.8331C245.469 66.5987 245.035 66.2413 244.684 65.7608H244.578C244.648 66.3233 244.684 66.8565 244.684 67.3604V71.3243H243.225V57.3672H244.411L244.613 58.6856H244.684C245.059 58.1583 245.495 57.7774 245.993 57.543C246.491 57.3087 247.062 57.1915 247.707 57.1915C248.984 57.1915 249.969 57.628 250.66 58.501C251.357 59.3741 251.706 60.5987 251.706 62.1749C251.706 63.7569 251.352 64.9874 250.643 65.8663C249.939 66.7393 248.961 67.1758 247.707 67.1758ZM247.496 58.4307C246.512 58.4307 245.8 58.7032 245.36 59.2481C244.921 59.793 244.695 60.6602 244.684 61.8497V62.1749C244.684 63.5284 244.909 64.4981 245.36 65.084C245.812 65.6641 246.535 65.9542 247.531 65.9542C248.363 65.9542 249.014 65.6172 249.482 64.9434C249.957 64.2696 250.194 63.3409 250.194 62.1573C250.194 60.9561 249.957 60.0362 249.482 59.3975C249.014 58.753 248.352 58.4307 247.496 58.4307ZM260.188 67.0001L259.897 65.629H259.827C259.347 66.2325 258.866 66.6426 258.386 66.8594C257.911 67.0704 257.316 67.1758 256.602 67.1758C255.646 67.1758 254.896 66.9297 254.352 66.4376C253.812 65.9454 253.543 65.2452 253.543 64.337C253.543 62.3917 255.099 61.3721 258.21 61.2784L259.845 61.2256V60.628C259.845 59.8721 259.681 59.3155 259.353 58.9581C259.03 58.5948 258.512 58.4131 257.797 58.4131C256.994 58.4131 256.086 58.6592 255.072 59.1514L254.624 58.0352C255.099 57.7774 255.617 57.5753 256.18 57.4288C256.748 57.2823 257.316 57.209 257.885 57.209C259.033 57.209 259.883 57.4639 260.434 57.9737C260.99 58.4835 261.269 59.3008 261.269 60.4258V67.0001H260.188ZM256.892 65.9717C257.8 65.9717 258.512 65.7227 259.027 65.2247C259.549 64.7266 259.81 64.0294 259.81 63.1329V62.2628L258.351 62.3243C257.19 62.3653 256.353 62.5469 255.837 62.8692C255.327 63.1856 255.072 63.6807 255.072 64.3546C255.072 64.8819 255.23 65.2833 255.547 65.5587C255.869 65.834 256.317 65.9717 256.892 65.9717ZM270.875 67.0001V60.7686C270.875 59.9835 270.696 59.3975 270.339 59.0108C269.981 58.6241 269.422 58.4307 268.66 58.4307C267.652 58.4307 266.914 58.7032 266.445 59.2481C265.977 59.793 265.742 60.6924 265.742 61.9464V67.0001H264.283V57.3672H265.47L265.707 58.6856H265.777C266.076 58.211 266.495 57.8448 267.034 57.587C267.573 57.3233 268.174 57.1915 268.836 57.1915C269.996 57.1915 270.869 57.4727 271.455 58.0352C272.041 58.5919 272.334 59.4854 272.334 60.7159V67.0001H270.875ZM273.811 57.3672H275.375L277.484 62.8604C277.947 64.1143 278.234 65.0196 278.346 65.5762H278.416C278.492 65.2774 278.65 64.7676 278.891 64.0469C279.137 63.3204 279.934 61.0938 281.281 57.3672H282.846L278.706 68.336C278.296 69.42 277.815 70.1876 277.265 70.6387C276.72 71.0958 276.049 71.3243 275.252 71.3243C274.807 71.3243 274.367 71.2745 273.934 71.1749V70.0059C274.256 70.0762 274.616 70.1114 275.015 70.1114C276.017 70.1114 276.731 69.5489 277.159 68.4239L277.695 67.0528L273.811 57.3672Z" fill="#004143"/>
</g>
<defs>
<filter id="filter0_d" x="0" y="9.9715" width="289.673" height="69.3528" filterUnits="userSpaceOnUse" color-interpolation-filters="sRGB">
<feFlood flood-opacity="0" result="BackgroundImageFix"/>
<feColorMatrix in="SourceAlpha" type="matrix" values="0 0 0 0 0 0 0 0 0 0 0 0 0 0 0 0 0 0 127 0"/>
<feOffset dy="4"/>
<feGaussianBlur stdDeviation="2"/>
<feColorMatrix type="matrix" values="0 0 0 0 0 0 0 0 0 0 0 0 0 0 0 0 0 0 0.25 0"/>
<feBlend mode="normal" in2="BackgroundImageFix" result="effect1_dropShadow"/>
<feBlend mode="normal" in="SourceGraphic" in2="effect1_dropShadow" result="shape"/>
</filter>
</defs>
</svg>
