<svg width="99" height="99" viewBox="0 0 99 99" fill="none" xmlns="http://www.w3.org/2000/svg">
<path d="M42.3843 64.9688H56.3062V95.9062H42.3843V64.9688Z" fill="url(#paint0_linear)"/>
<path opacity="0.2" d="M53.9858 67.2891V93.5859H44.7046V67.2891H53.9858ZM56.3062 64.9688H42.3843V95.9062H56.3062V64.9688Z" fill="#444444"/>
<path d="M95.829 74.25H21.811V18.5625H75.797C86.9345 18.5625 95.9064 27.5344 95.9064 38.6719L95.829 74.25Z" fill="url(#paint1_linear)"/>
<path d="M37.7437 74.25H3.09375V35.8102C3.09375 26.2969 10.8281 18.5625 20.4187 18.5625C30.0094 18.5625 37.7437 26.2969 37.7437 35.8875V74.25Z" fill="url(#paint2_linear)"/>
<path d="M28.9268 39.9092H11.9111C11.0604 39.9092 10.3643 39.2131 10.3643 38.3623V35.2686C10.3643 34.4178 11.0604 33.7217 11.9111 33.7217H28.9268C29.7775 33.7217 30.4736 34.4178 30.4736 35.2686V38.3623C30.4736 39.2131 29.7775 39.9092 28.9268 39.9092Z" fill="#4770FF"/>
<path opacity="0.2" d="M75.7195 20.8828C85.5422 20.8828 93.5086 28.8492 93.5086 38.6719V71.9297H5.41406V35.8102C5.41406 27.6117 12.143 20.8828 20.4187 20.8828C20.8055 20.8828 21.1922 20.8828 21.6562 20.9602H21.8109C21.9656 20.9602 22.1977 20.9602 22.3523 20.8828H75.7195ZM75.7195 18.5625H20.4187C10.8281 18.5625 3.09375 26.2969 3.09375 35.8102V74.25H95.8289V38.6719C95.8289 27.5344 86.857 18.5625 75.7195 18.5625Z" fill="#646161"/>
<path d="M66.4382 3.24805H52.439C49.8866 3.24805 47.7983 5.33633 47.7983 7.88867V44.1629C47.7983 45.2457 48.6491 46.0965 49.7319 46.0965H53.5991C54.6819 46.0965 55.5327 45.2457 55.5327 44.1629V15.4684H66.3608C68.9132 15.4684 71.0015 13.3801 71.0015 10.8277V7.88867C71.0788 5.33633 68.9905 3.24805 66.4382 3.24805Z" fill="url(#paint3_linear)"/>
<path opacity="0.2" d="M66.4382 4.79492C68.1397 4.79492 69.5319 6.18711 69.5319 7.88867V10.8277C69.5319 12.5293 68.1397 13.9215 66.4382 13.9215H55.6101C54.7593 13.9215 54.0632 14.6176 54.0632 15.4684V44.1629C54.0632 44.3949 53.9085 44.5496 53.6765 44.5496H49.8093C49.5772 44.5496 49.4226 44.3949 49.4226 44.1629V11.2145V11.0598V7.81133C49.4226 6.10977 50.8147 4.71758 52.5163 4.71758L66.4382 4.79492ZM66.4382 3.24805H52.439C49.8866 3.24805 47.7983 5.33633 47.7983 7.88867V44.1629C47.7983 45.2457 48.6491 46.0965 49.7319 46.0965H53.5991C54.6819 46.0965 55.5327 45.2457 55.5327 44.1629V15.4684H66.3608C68.9132 15.4684 71.0015 13.3801 71.0015 10.8277V7.88867C71.0788 5.33633 68.9905 3.24805 66.4382 3.24805Z" fill="#444444"/>
<path d="M51.6655 52.9033C55.51 52.9033 58.6265 49.7868 58.6265 45.9424C58.6265 42.098 55.51 38.9814 51.6655 38.9814C47.8211 38.9814 44.7046 42.098 44.7046 45.9424C44.7046 49.7868 47.8211 52.9033 51.6655 52.9033Z" fill="url(#paint4_radial)"/>
<path opacity="0.2" d="M51.6655 40.5283C54.6819 40.5283 57.0796 42.926 57.0796 45.9424C57.0796 48.9588 54.6819 51.3564 51.6655 51.3564C48.6491 51.3564 46.2515 48.9588 46.2515 45.9424C46.2515 42.926 48.7265 40.5283 51.6655 40.5283ZM51.6655 38.9814C47.7983 38.9814 44.7046 42.0752 44.7046 45.9424C44.7046 49.8096 47.7983 52.9033 51.6655 52.9033C55.5327 52.9033 58.6265 49.8096 58.6265 45.9424C58.6265 42.0752 55.5327 38.9814 51.6655 38.9814Z" fill="#444444"/>
<defs>
<linearGradient id="paint0_linear" x1="49.3452" y1="71.2854" x2="49.3452" y2="96.5559" gradientUnits="userSpaceOnUse">
<stop offset="0.275" stop-color="#757575"/>
<stop offset="0.993" stop-color="#BDBDBD"/>
</linearGradient>
<linearGradient id="paint1_linear" x1="58.8587" y1="18.1758" x2="58.8587" y2="69.9141" gradientUnits="userSpaceOnUse">
<stop stop-color="#4770FF"/>
<stop offset="0.664" stop-color="#2196F3"/>
</linearGradient>
<linearGradient id="paint2_linear" x1="20.4187" y1="18.3691" x2="20.4187" y2="74.25" gradientUnits="userSpaceOnUse">
<stop offset="0.332" stop-color="#ECF7FF"/>
<stop offset="1" stop-color="#42A5F5"/>
</linearGradient>
<linearGradient id="paint3_linear" x1="59.4007" y1="9.66758" x2="59.4007" y2="49.8879" gradientUnits="userSpaceOnUse">
<stop offset="0.227" stop-color="#EF5350"/>
<stop offset="0.783" stop-color="#E53935"/>
</linearGradient>
<radialGradient id="paint4_radial" cx="0" cy="0" r="1" gradientUnits="userSpaceOnUse" gradientTransform="translate(49.387 43.4426) scale(11.5467)">
<stop stop-color="#ECEFF1"/>
<stop offset="0.672" stop-color="#B0BEC5"/>
</radialGradient>
</defs>
</svg>
