<svg width="25" height="25" viewBox="0 0 25 25" fill="none" xmlns="http://www.w3.org/2000/svg">
<path d="M5.8945 22.578C5.8945 22.1599 6.03387 21.707 5.85965 21.3934C5.68544 21.1146 5.19765 21.0101 4.84922 20.8359C3.00256 19.8603 1.57401 18.4666 0.842316 16.5154C0.528732 15.7489 0.424204 14.8778 0.284834 14.0416C0.145463 13.2054 0.11062 12.3691 0.0757777 11.5329C0.00609241 9.7211 0.215148 7.90928 0.598417 6.1323C0.807473 5.12187 1.33011 4.2508 1.95728 3.48426C2.93287 2.26477 4.11752 1.25434 5.61576 0.766538C6.48682 0.487797 7.39273 0.348427 8.29864 0.243899C9.51813 0.104528 10.7725 0 11.992 0C13.2115 0 14.4309 0.104528 15.6504 0.209056C16.4518 0.278741 17.2532 0.418112 18.0546 0.592325C19.4483 0.905909 20.5981 1.70729 21.6085 2.68288C22.5841 3.62363 23.3855 4.7386 23.6642 6.09746C24.0824 8.08349 24.3263 10.0695 24.152 12.0904C24.0475 13.3099 23.9081 14.4945 23.6991 15.714C23.4552 17.1077 22.6886 18.1879 21.7131 19.1635C20.7026 20.2087 19.5528 21.045 18.0894 21.3585C16.9745 21.6024 15.8246 21.707 14.7097 21.8463C14.1174 21.916 13.4902 21.9509 12.863 21.9509C12.1662 21.9509 11.4345 21.916 10.7376 21.916C10.5634 21.916 10.3195 22.0205 10.1801 22.1599C9.37876 22.9613 8.64707 23.7627 7.88053 24.5641C7.32305 25.1215 6.55651 25.1564 6.1384 24.5989C5.96418 24.355 5.8945 24.0066 5.85965 23.7278C5.85965 23.3097 5.8945 22.9613 5.8945 22.578ZM6.87009 21.4979C6.87009 21.8463 6.87009 22.1948 6.87009 22.5432C6.87009 22.8916 6.87009 23.24 6.87009 23.5885C6.87009 23.693 6.93978 23.8324 7.00946 23.8672C7.07915 23.902 7.21852 23.7975 7.2882 23.7278C7.35789 23.693 7.39273 23.6233 7.46242 23.5536C8.64707 22.3341 9.79687 21.1495 10.9815 19.9648C11.1209 19.8255 11.3299 19.7209 11.539 19.7209C13.2115 19.7209 14.8839 19.5816 16.5563 19.3725C17.5319 19.2331 18.4378 18.9892 19.2392 18.3621C20.2845 17.5258 21.2601 16.6199 21.504 15.2611C21.7479 13.9719 21.8873 12.6479 21.957 11.3239C21.9918 10.2437 21.8524 9.12877 21.7479 8.04865C21.6434 6.89884 21.3646 5.78388 20.5284 4.84313C19.6922 3.90238 18.7514 3.03131 17.4623 2.78741C16.2079 2.54351 14.9536 2.40414 13.6644 2.33446C11.5738 2.22993 9.44845 2.29961 7.39273 2.68288C5.1628 3.06615 3.62973 4.35533 2.86319 6.44589C2.51476 7.38664 2.44508 8.43192 2.37539 9.44235C2.30571 10.7315 2.34055 12.0556 2.44508 13.3447C2.47992 14.1113 2.58445 14.9126 2.86319 15.6443C3.49036 17.3516 4.74469 18.4666 6.41714 19.1286C6.73072 19.268 6.87009 19.4073 6.87009 19.7558C6.83525 20.2784 6.87009 20.9056 6.87009 21.4979Z" fill="#646161"/>
<path d="M13.1067 14.0763C13.246 14.0066 13.4202 13.9369 13.5596 13.8324C13.7338 13.693 13.8384 13.484 14.0126 13.3446C14.361 12.9962 14.7791 12.8568 15.1972 13.1007C15.9638 13.6233 16.7303 14.146 17.462 14.7383C17.7407 14.9474 17.8453 15.2609 17.671 15.6094C17.2878 16.4804 16.7303 17.1773 15.7547 17.456C15.6153 17.4909 15.476 17.4909 15.3366 17.456C12.0962 16.3062 9.37849 14.4944 7.56668 11.4979C6.93951 10.4875 6.48656 9.37254 5.96392 8.29242C5.68518 7.76978 5.7897 7.28198 6.10329 6.79419C6.48655 6.2367 6.97435 5.81859 7.56668 5.53985C7.9151 5.36564 8.29837 5.40048 8.54227 5.71406C9.09975 6.41092 9.62239 7.14261 10.1102 7.90915C10.4586 8.46663 10.2844 8.91959 9.79661 9.3377C9.69208 9.40738 9.62239 9.47707 9.51786 9.54675C9.20428 9.79065 9.1346 10.1042 9.27397 10.4527C9.86629 12.0903 10.9464 13.3098 12.6189 13.9369C12.7582 14.0066 12.8976 14.0066 13.1067 14.0763Z" fill="#646161"/>
<path d="M18.1245 10.8709C18.1245 10.9754 18.1941 11.1148 18.1593 11.2193C18.0896 11.3587 17.9851 11.5677 17.8457 11.6026C17.7412 11.6374 17.4973 11.4284 17.4625 11.3239C17.3579 10.9754 17.3579 10.627 17.3231 10.2786C17.1837 8.22286 15.6158 6.27167 13.6298 5.78387C13.2116 5.67935 12.7587 5.6445 12.3057 5.57482C12.2012 5.57482 12.1315 5.53998 12.027 5.53998C11.7831 5.50513 11.6089 5.43545 11.6089 5.15671C11.6437 4.84312 11.8876 4.77344 12.1315 4.77344C14.8144 4.87797 17.114 6.41104 17.8806 9.16361C18.0199 9.72109 18.0896 10.3134 18.1593 10.8709C18.1593 10.8361 18.1593 10.8709 18.1245 10.8709Z" fill="#646161"/>
<path d="M16.626 10.4876C16.5912 10.5573 16.626 10.6966 16.5563 10.7663C16.4518 10.8709 16.3124 11.0102 16.1731 11.0102C16.0685 11.0102 15.8943 10.836 15.8943 10.7315C15.7898 10.3482 15.7898 9.89526 15.6853 9.51199C15.3368 8.18797 14.2219 7.28206 12.8282 7.14269C12.6888 7.14269 12.5843 7.10785 12.4449 7.073C12.2358 7.03816 12.0965 6.89879 12.1313 6.68973C12.1662 6.44584 12.3404 6.34131 12.5494 6.34131C14.6051 6.48068 16.3473 7.76986 16.5912 10.0346C16.5912 10.1392 16.626 10.3134 16.626 10.4876Z" fill="#646161"/>
<path d="M13.0373 7.90918C14.2219 7.94402 15.1278 8.95446 15.0582 10.0694C15.0582 10.3133 14.9536 10.5224 14.7097 10.4875C14.5704 10.4527 14.431 10.2785 14.2916 10.1391C14.2568 10.1043 14.2916 10.0346 14.2916 9.99974C14.1174 9.09383 13.8735 8.84993 12.9328 8.67572C12.6889 8.64088 12.5146 8.5015 12.5146 8.25761C12.5495 8.01371 12.7237 7.90918 12.9676 7.90918C13.0373 7.90918 13.0721 7.90918 13.0373 7.90918Z" fill="#646161"/>
</svg>
