<svg width="26" height="25" viewBox="0 0 26 25" fill="none" xmlns="http://www.w3.org/2000/svg">
<path d="M0.625 25L2.38722 18.291C1.40038 16.4548 0.836467 14.4068 0.836467 12.3588C0.836467 5.50847 6.40509 0 13.172 0C19.9389 0 25.5076 5.50847 25.5076 12.3588C25.5076 19.1384 20.0094 24.7175 13.172 24.7175C11.1278 24.7175 9.15415 24.2232 7.32144 23.2345L0.625 25ZM7.67389 20.6921L8.09682 20.9746C9.64757 21.8927 11.4098 22.387 13.172 22.387C18.6701 22.387 23.1814 17.8672 23.1814 12.3588C23.1814 6.85028 18.6701 2.33051 13.172 2.33051C7.67388 2.33051 3.1626 6.85028 3.1626 12.3588C3.1626 14.1949 3.65602 15.9605 4.64286 17.5141L4.92482 17.9379L3.93798 21.6808L7.67389 20.6921Z" fill="#646161"/>
<path fill-rule="evenodd" clip-rule="evenodd" d="M17.7537 14.0534C17.2603 13.7709 16.5554 13.4178 15.9915 13.6296C15.498 13.8415 15.2161 14.5477 14.9341 14.9008C14.7931 15.1127 14.5817 15.1127 14.3702 15.0421C12.6785 14.3359 11.3392 13.2059 10.3524 11.6522C10.2114 11.4404 10.2114 11.2285 10.4228 11.0166C10.7048 10.6635 11.0572 10.3104 11.1277 9.81608C11.1982 9.39235 10.9868 8.82738 10.7753 8.40365C10.5638 7.9093 10.2819 7.13247 9.71795 6.84998C9.22453 6.5675 8.59013 6.70874 8.1672 7.06185C7.46231 7.62682 7.10986 8.61552 7.10986 9.5336C7.10986 9.81608 7.18035 10.0279 7.18035 10.3104C7.32133 10.946 7.60329 11.511 7.95573 12.0053C8.1672 12.4291 8.44915 12.7822 8.73111 13.2059C9.64746 14.4771 10.7753 15.5364 12.1146 16.3839C12.749 16.8076 13.5243 17.1607 14.2292 17.3726C15.0751 17.6551 15.78 17.9376 16.6963 17.7963C17.6127 17.5844 18.5291 17.0195 18.952 16.1014C19.093 15.8189 19.093 15.5364 19.0225 15.2539C19.0225 14.689 18.2471 14.3359 17.7537 14.0534Z" fill="#646161"/>
</svg>
